<svg version="1.1" xmlns="http://www.w3.org/2000/svg" xmlns:xlink="http://www.w3.org/1999/xlink" width="704.6117647058821" height="570"><style xmlns="http://www.w3.org/1999/xhtml"></style><defs/><g transform="translate(0,0)"><g><rect fill="#FFFFFF" stroke="none" x="0" y="0" width="704.6117647058821" height="570"/></g><g transform="translate(0,0) matrix(1,0,0,1,70,40)"><g><g transform="translate(0,0) scale(6.09,0.6)"><g><path fill="#ff9900" stroke="none" d="M 0 0 L 100 0 Q 100 0 100 0 L 100 100 Q 100 100 100 100 L 0 100 Q 0 100 0 100 L 0 0 Q 0 0 0 0 Z"/><g transform="scale(0.16420361247947454,1.6666666666666667)"><path fill="none" stroke="none" d="M 0 0 L 609 0 Q 609 0 609 0 L 609 60 Q 609 60 609 60 L 0 60 Q 0 60 0 60 L 0 0 Q 0 0 0 0 Z"/><path fill="none" stroke="#ffffff" d="M 0 0 M 0 0 L 609 0 Q 609 0 609 0 L 609 60 Q 609 60 609 60 L 0 60 Q 0 60 0 60 L 0 0 Q 0 0 0 0 Z" stroke-miterlimit="10" stroke-width="2"/></g></g></g></g></g><g transform="matrix(1,0,0,1,80,54)"><g><g><rect fill="rgb(0,0,0)" stroke="none" x="0" y="0" width="589" height="32" fill-opacity="0"/></g></g><g><g><rect fill="rgb(0,0,0)" stroke="none" x="0" y="0" width="589" height="32" fill-opacity="0"/></g></g><g><g><rect fill="rgb(0,0,0)" stroke="none" x="190.296875" y="0" width="209" height="32" fill-opacity="0"/></g></g><g><g><rect fill="rgb(0,0,0)" stroke="none" x="190.296875" y="0" width="209" height="32" fill-opacity="0"/></g></g><g><g><rect fill="rgb(0,0,0)" stroke="none" x="190.296875" y="0" width="209" height="17" fill-opacity="0"/></g><text fill="rgb(0, 0, 0)" stroke="none" font-family="Arial" font-size="16px" font-style="normal" font-weight="700" text-decoration="" line-height="18.5px" x="190.296875" y="14">GrapqhQL</text><text fill="rgb(0, 0, 0)" stroke="none" font-family="Arial" font-size="16px" font-style="normal" font-weight="700" text-decoration="" line-height="18.5px" x="269.40625" y="14">-</text><text fill="rgb(0, 0, 0)" stroke="none" font-family="Arial" font-size="16px" font-style="normal" font-weight="700" text-decoration="" line-height="18.5px" x="274.734375" y="14">Tools</text><text fill="rgb(0, 0, 0)" stroke="none" font-family="Arial" font-size="16px" font-style="normal" font-weight="700" text-decoration="" line-height="18.5px" x="316.203125" y="14">-</text><text fill="rgb(0, 0, 0)" stroke="none" font-family="Arial" font-size="16px" font-style="normal" font-weight="700" text-decoration="" line-height="18.5px" x="321.53125" y="14">Subscribe</text></g><g><g/></g><g><g><rect fill="rgb(0,0,0)" stroke="none" x="230.90625" y="18" width="127" height="14" fill-opacity="0"/></g><text fill="rgb(0, 0, 0)" stroke="none" font-family="Arial" font-size="12px" font-style="normal" font-weight="normal" text-decoration="" line-height="14px" x="230.90625" y="29">[</text><text fill="rgb(0, 0, 0)" stroke="none" font-family="Arial" font-size="12px" font-style="normal" font-weight="normal" text-decoration="" line-height="14px" x="234.234375" y="29">graphql</text><text fill="rgb(0, 0, 0)" stroke="none" font-family="Arial" font-size="12px" font-style="normal" font-weight="normal" text-decoration="" line-height="14px" x="274.265625" y="29">-</text><text fill="rgb(0, 0, 0)" stroke="none" font-family="Arial" font-size="12px" font-style="normal" font-weight="normal" text-decoration="" line-height="14px" x="278.265625" y="29">tools</text><text fill="rgb(0, 0, 0)" stroke="none" font-family="Arial" font-size="12px" font-style="normal" font-weight="normal" text-decoration="" line-height="14px" x="303.609375" y="29">-</text><text fill="rgb(0, 0, 0)" stroke="none" font-family="Arial" font-size="12px" font-style="normal" font-weight="normal" text-decoration="" line-height="14px" x="307.609375" y="29">subscibe</text><text fill="rgb(0, 0, 0)" stroke="none" font-family="Arial" font-size="12px" font-style="normal" font-weight="normal" text-decoration="" line-height="14px" x="354.96875" y="29">]</text></g></g><g transform="translate(0,0) matrix(1,0,0,1,70,130)"><g><g transform="translate(0,0) scale(6.09,1.88)"><g><path fill="#ffffff" stroke="none" d="M 0 0 L 100 0 Q 100 0 100 0 L 100 100 Q 100 100 100 100 L 0 100 Q 0 100 0 100 L 0 0 Q 0 0 0 0 Z"/><g transform="scale(0.16420361247947454,0.5319148936170213)"><path fill="none" stroke="none" d="M 0 0 L 609 0 Q 609 0 609 0 L 609 188 Q 609 188 609 188 L 0 188 Q 0 188 0 188 L 0 0 Q 0 0 0 0 Z"/><path fill="none" stroke="#000000" d="M 0 0 M 0 0 L 609 0 Q 609 0 609 0 L 609 188 Q 609 188 609 188 L 0 188 Q 0 188 0 188 L 0 0 Q 0 0 0 0 Z" stroke-miterlimit="10" stroke-width="2"/></g></g></g></g></g><g transform="translate(0,0) matrix(1,0,0,1,79,138)"><g><g transform="translate(0,0) scale(1.4,0.8)"><g><path fill="#ff9900" stroke="none" d="M 0 0 L 100 0 Q 100 0 100 0 L 100 100 Q 100 100 100 100 L 0 100 Q 0 100 0 100 L 0 0 Q 0 0 0 0 Z"/><g transform="scale(0.7142857142857143,1.25)"><path fill="none" stroke="none" d="M 0 0 L 140 0 Q 140 0 140 0 L 140 80 Q 140 80 140 80 L 0 80 Q 0 80 0 80 L 0 0 Q 0 0 0 0 Z"/><path fill="none" stroke="#e69138" d="M 0 0 M 0 0 L 140 0 Q 140 0 140 0 L 140 80 Q 140 80 140 80 L 0 80 Q 0 80 0 80 L 0 0 Q 0 0 0 0 Z" stroke-miterlimit="10" stroke-width="2"/></g></g></g></g></g><g transform="matrix(1,0,0,1,89,162)"><g><g><rect fill="rgb(0,0,0)" stroke="none" x="0" y="0" width="121" height="32" fill-opacity="0"/></g></g><g><g><rect fill="rgb(0,0,0)" stroke="none" x="0" y="0" width="121" height="18" fill-opacity="0"/></g></g><g><g><rect fill="rgb(0,0,0)" stroke="none" x="25.046875" y="0" width="71" height="17" fill-opacity="0"/></g></g><g><g><rect fill="rgb(0,0,0)" stroke="none" x="25.046875" y="0" width="71" height="17" fill-opacity="0"/></g><text fill="rgb(0, 0, 0)" stroke="none" font-family="Arial" font-size="16px" font-style="normal" font-weight="normal" text-decoration="" line-height="18.5px" x="25.046875" y="14">Subscribe</text></g><g><g><rect fill="rgb(0,0,0)" stroke="none" x="0" y="18" width="121" height="14" fill-opacity="0"/></g></g><g><g><rect fill="rgb(0,0,0)" stroke="none" x="30.609375" y="18" width="60" height="14" fill-opacity="0"/></g></g><g><g><rect fill="rgb(0,0,0)" stroke="none" x="30.609375" y="18" width="60" height="14" fill-opacity="0"/></g><text fill="rgb(0, 0, 0)" stroke="none" font-family="Arial" font-size="12px" font-style="normal" font-weight="normal" text-decoration="" line-height="14px" x="30.609375" y="29">[</text><text fill="rgb(0, 0, 0)" stroke="none" font-family="Arial" font-size="12px" font-style="normal" font-weight="normal" text-decoration="" line-height="14px" x="33.9375" y="29">Subscribe</text><text fill="rgb(0, 0, 0)" stroke="none" font-family="Arial" font-size="12px" font-style="normal" font-weight="normal" text-decoration="" line-height="14px" x="87.296875" y="29">]</text></g></g><g transform="translate(0,0) matrix(1,0,0,1,230,138)"><g><g transform="translate(0,0) scale(1.4,0.8)"><g><path fill="#e69138" stroke="none" d="M 0 0 L 100 0 Q 100 0 100 0 L 100 100 Q 100 100 100 100 L 0 100 Q 0 100 0 100 L 0 0 Q 0 0 0 0 Z"/><g transform="scale(0.7142857142857143,1.25)"><path fill="none" stroke="none" d="M 0 0 L 140 0 Q 140 0 140 0 L 140 80 Q 140 80 140 80 L 0 80 Q 0 80 0 80 L 0 0 Q 0 0 0 0 Z"/><path fill="none" stroke="#e69138" d="M 0 0 M 0 0 L 140 0 Q 140 0 140 0 L 140 80 Q 140 80 140 80 L 0 80 Q 0 80 0 80 L 0 0 Q 0 0 0 0 Z" stroke-miterlimit="10" stroke-width="2"/></g></g></g></g></g><g transform="matrix(1,0,0,1,240,162)"><g><g><rect fill="rgb(0,0,0)" stroke="none" x="0" y="0" width="121" height="32" fill-opacity="0"/></g></g><g><g><rect fill="rgb(0,0,0)" stroke="none" x="0" y="0" width="121" height="18" fill-opacity="0"/></g></g><g><g><rect fill="rgb(0,0,0)" stroke="none" x="29.0625" y="0" width="63" height="17" fill-opacity="0"/></g></g><g><g><rect fill="rgb(0,0,0)" stroke="none" x="29.0625" y="0" width="63" height="17" fill-opacity="0"/></g><text fill="rgb(0, 0, 0)" stroke="none" font-family="Arial" font-size="16px" font-style="normal" font-weight="normal" text-decoration="" line-height="18.5px" x="29.0625" y="14">Resolver</text></g><g><g><rect fill="rgb(0,0,0)" stroke="none" x="0" y="18" width="121" height="14" fill-opacity="0"/></g></g><g><g><rect fill="rgb(0,0,0)" stroke="none" x="33.609375" y="18" width="54" height="14" fill-opacity="0"/></g></g><g><g><rect fill="rgb(0,0,0)" stroke="none" x="33.609375" y="18" width="54" height="14" fill-opacity="0"/></g><text fill="rgb(0, 0, 0)" stroke="none" font-family="Arial" font-size="12px" font-style="normal" font-weight="normal" text-decoration="" line-height="14px" x="33.609375" y="29">[</text><text fill="rgb(0, 0, 0)" stroke="none" font-family="Arial" font-size="12px" font-style="normal" font-weight="normal" text-decoration="" line-height="14px" x="36.9375" y="29">Resolver</text><text fill="rgb(0, 0, 0)" stroke="none" font-family="Arial" font-size="12px" font-style="normal" font-weight="normal" text-decoration="" line-height="14px" x="84.28125" y="29">]</text></g></g><g transform="translate(0,0) matrix(1,0,0,1,380,138)"><g><g transform="translate(0,0) scale(1.4,0.8)"><g><path fill="#e69138" stroke="none" d="M 0 0 L 100 0 Q 100 0 100 0 L 100 100 Q 100 100 100 100 L 0 100 Q 0 100 0 100 L 0 0 Q 0 0 0 0 Z"/><g transform="scale(0.7142857142857143,1.25)"><path fill="none" stroke="none" d="M 0 0 L 140 0 Q 140 0 140 0 L 140 80 Q 140 80 140 80 L 0 80 Q 0 80 0 80 L 0 0 Q 0 0 0 0 Z"/><path fill="none" stroke="#e69138" d="M 0 0 M 0 0 L 140 0 Q 140 0 140 0 L 140 80 Q 140 80 140 80 L 0 80 Q 0 80 0 80 L 0 0 Q 0 0 0 0 Z" stroke-miterlimit="10" stroke-width="2"/></g></g></g></g></g><g transform="matrix(1,0,0,1,390,162)"><g><g><rect fill="rgb(0,0,0)" stroke="none" x="0" y="0" width="121" height="32" fill-opacity="0"/></g></g><g><g><rect fill="rgb(0,0,0)" stroke="none" x="0" y="0" width="121" height="18" fill-opacity="0"/></g></g><g><g><rect fill="rgb(0,0,0)" stroke="none" x="23.265625" y="0" width="75" height="17" fill-opacity="0"/></g></g><g><g><rect fill="rgb(0,0,0)" stroke="none" x="23.265625" y="0" width="75" height="17" fill-opacity="0"/></g><text fill="rgb(0, 0, 0)" stroke="none" font-family="Arial" font-size="16px" font-style="normal" font-weight="normal" text-decoration="" line-height="18.5px" x="23.265625" y="14">Evaluation</text></g><g><g><rect fill="rgb(0,0,0)" stroke="none" x="0" y="18" width="121" height="14" fill-opacity="0"/></g></g><g><g><rect fill="rgb(0,0,0)" stroke="none" x="29.265625" y="18" width="63" height="14" fill-opacity="0"/></g></g><g><g><rect fill="rgb(0,0,0)" stroke="none" x="29.265625" y="18" width="63" height="14" fill-opacity="0"/></g><text fill="rgb(0, 0, 0)" stroke="none" font-family="Arial" font-size="12px" font-style="normal" font-weight="normal" text-decoration="" line-height="14px" x="29.265625" y="29">[</text><text fill="rgb(0, 0, 0)" stroke="none" font-family="Arial" font-size="12px" font-style="normal" font-weight="normal" text-decoration="" line-height="14px" x="32.59375" y="29">Evaluation</text><text fill="rgb(0, 0, 0)" stroke="none" font-family="Arial" font-size="12px" font-style="normal" font-weight="normal" text-decoration="" line-height="14px" x="88.625" y="29">]</text></g></g><g transform="translate(0,0) matrix(1,0,0,1,531,138)"><g><g transform="translate(0,0) scale(1.4,0.8)"><g><path fill="#e69138" stroke="none" d="M 0 0 L 100 0 Q 100 0 100 0 L 100 100 Q 100 100 100 100 L 0 100 Q 0 100 0 100 L 0 0 Q 0 0 0 0 Z"/><g transform="scale(0.7142857142857143,1.25)"><path fill="none" stroke="none" d="M 0 0 L 140 0 Q 140 0 140 0 L 140 80 Q 140 80 140 80 L 0 80 Q 0 80 0 80 L 0 0 Q 0 0 0 0 Z"/><path fill="none" stroke="#e69138" d="M 0 0 M 0 0 L 140 0 Q 140 0 140 0 L 140 80 Q 140 80 140 80 L 0 80 Q 0 80 0 80 L 0 0 Q 0 0 0 0 Z" stroke-miterlimit="10" stroke-width="2"/></g></g></g></g></g><g transform="matrix(1,0,0,1,541,162)"><g><g><rect fill="rgb(0,0,0)" stroke="none" x="0" y="0" width="121" height="32" fill-opacity="0"/></g></g><g><g><rect fill="rgb(0,0,0)" stroke="none" x="0" y="0" width="121" height="18" fill-opacity="0"/></g></g><g><g><rect fill="rgb(0,0,0)" stroke="none" x="30.25" y="0" width="61" height="17" fill-opacity="0"/></g></g><g><g><rect fill="rgb(0,0,0)" stroke="none" x="30.25" y="0" width="61" height="17" fill-opacity="0"/></g><text fill="rgb(0, 0, 0)" stroke="none" font-family="Arial" font-size="16px" font-style="normal" font-weight="normal" text-decoration="" line-height="18.5px" x="30.25" y="14">Tracking</text></g><g><g><rect fill="rgb(0,0,0)" stroke="none" x="0" y="18" width="121" height="14" fill-opacity="0"/></g></g><g><g><rect fill="rgb(0,0,0)" stroke="none" x="34.5" y="18" width="52" height="14" fill-opacity="0"/></g></g><g><g><rect fill="rgb(0,0,0)" stroke="none" x="34.5" y="18" width="52" height="14" fill-opacity="0"/></g><text fill="rgb(0, 0, 0)" stroke="none" font-family="Arial" font-size="12px" font-style="normal" font-weight="normal" text-decoration="" line-height="14px" x="34.5" y="29">[</text><text fill="rgb(0, 0, 0)" stroke="none" font-family="Arial" font-size="12px" font-style="normal" font-weight="normal" text-decoration="" line-height="14px" x="37.828125" y="29">Tracking</text><text fill="rgb(0, 0, 0)" stroke="none" font-family="Arial" font-size="12px" font-style="normal" font-weight="normal" text-decoration="" line-height="14px" x="83.390625" y="29">]</text></g></g><g transform="translate(0,0) matrix(1,0,0,1,80,230)"><g><g transform="translate(0,0) scale(1.4,0.8)"><g><path fill="#e69138" stroke="none" d="M 0 0 L 100 0 Q 100 0 100 0 L 100 100 Q 100 100 100 100 L 0 100 Q 0 100 0 100 L 0 0 Q 0 0 0 0 Z"/><g transform="scale(0.7142857142857143,1.25)"><path fill="none" stroke="none" d="M 0 0 L 140 0 Q 140 0 140 0 L 140 80 Q 140 80 140 80 L 0 80 Q 0 80 0 80 L 0 0 Q 0 0 0 0 Z"/><path fill="none" stroke="#ffffff" d="M 0 0 M 0 0 L 140 0 Q 140 0 140 0 L 140 80 Q 140 80 140 80 L 0 80 Q 0 80 0 80 L 0 0 Q 0 0 0 0 Z" stroke-miterlimit="10" stroke-width="2"/></g></g></g></g></g><g transform="matrix(1,0,0,1,90,254)"><g><g><rect fill="rgb(0,0,0)" stroke="none" x="0" y="0" width="121" height="32" fill-opacity="0"/></g></g><g><g><rect fill="rgb(0,0,0)" stroke="none" x="0" y="0" width="121" height="18" fill-opacity="0"/></g></g><g><g><rect fill="rgb(0,0,0)" stroke="none" x="41.953125" y="0" width="37" height="17" fill-opacity="0"/></g></g><g><g><rect fill="rgb(0,0,0)" stroke="none" x="41.953125" y="0" width="37" height="17" fill-opacity="0"/></g><text fill="rgb(0, 0, 0)" stroke="none" font-family="Arial" font-size="16px" font-style="normal" font-weight="normal" text-decoration="" line-height="18.5px" x="41.953125" y="14">Hook</text></g><g><g><rect fill="rgb(0,0,0)" stroke="none" x="0" y="18" width="121" height="14" fill-opacity="0"/></g></g><g><g><rect fill="rgb(0,0,0)" stroke="none" x="35.28125" y="18" width="51" height="14" fill-opacity="0"/></g></g><g><g><rect fill="rgb(0,0,0)" stroke="none" x="35.28125" y="18" width="51" height="14" fill-opacity="0"/></g><text fill="rgb(0, 0, 0)" stroke="none" font-family="Arial" font-size="12px" font-style="normal" font-weight="normal" text-decoration="" line-height="14px" x="35.28125" y="29">[</text><text fill="rgb(0, 0, 0)" stroke="none" font-family="Arial" font-size="12px" font-style="normal" font-weight="normal" text-decoration="" line-height="14px" x="38.609375" y="29">Hooking</text><text fill="rgb(0, 0, 0)" stroke="none" font-family="Arial" font-size="12px" font-style="normal" font-weight="normal" text-decoration="" line-height="14px" x="82.640625" y="29">]</text></g></g><g transform="translate(0,0) matrix(1,0,0,1,230,230)"><g><g transform="translate(0,0) scale(1.4,0.8)"><g><path fill="#e69138" stroke="none" d="M 0 0 L 100 0 Q 100 0 100 0 L 100 100 Q 100 100 100 100 L 0 100 Q 0 100 0 100 L 0 0 Q 0 0 0 0 Z"/><g transform="scale(0.7142857142857143,1.25)"><path fill="none" stroke="none" d="M 0 0 L 140 0 Q 140 0 140 0 L 140 80 Q 140 80 140 80 L 0 80 Q 0 80 0 80 L 0 0 Q 0 0 0 0 Z"/><path fill="none" stroke="#ffffff" d="M 0 0 M 0 0 L 140 0 Q 140 0 140 0 L 140 80 Q 140 80 140 80 L 0 80 Q 0 80 0 80 L 0 0 Q 0 0 0 0 Z" stroke-miterlimit="10" stroke-width="2"/></g></g></g></g></g><g transform="matrix(1,0,0,1,240,254)"><g><g><rect fill="rgb(0,0,0)" stroke="none" x="0" y="0" width="121" height="32" fill-opacity="0"/></g></g><g><g><rect fill="rgb(0,0,0)" stroke="none" x="0" y="0" width="121" height="18" fill-opacity="0"/></g></g><g><g><rect fill="rgb(0,0,0)" stroke="none" x="45.515625" y="0" width="30" height="17" fill-opacity="0"/></g></g><g><g><rect fill="rgb(0,0,0)" stroke="none" x="45.515625" y="0" width="30" height="17" fill-opacity="0"/></g><text fill="rgb(0, 0, 0)" stroke="none" font-family="Arial" font-size="16px" font-style="normal" font-weight="normal" text-decoration="" line-height="18.5px" x="45.515625" y="14">P</text><text fill="rgb(0, 0, 0)" stroke="none" font-family="Arial" font-size="16px" font-style="normal" font-weight="normal" text-decoration="" line-height="18.5px" x="56.1875" y="14">/</text><text fill="rgb(0, 0, 0)" stroke="none" font-family="Arial" font-size="16px" font-style="normal" font-weight="normal" text-decoration="" line-height="18.5px" x="60.625" y="14">S</text></g><g><g><rect fill="rgb(0,0,0)" stroke="none" x="0" y="18" width="121" height="14" fill-opacity="0"/></g></g><g><g><rect fill="rgb(0,0,0)" stroke="none" x="16.265625" y="18" width="89" height="14" fill-opacity="0"/></g></g><g><g><rect fill="rgb(0,0,0)" stroke="none" x="16.265625" y="18" width="89" height="14" fill-opacity="0"/></g><text fill="rgb(0, 0, 0)" stroke="none" font-family="Arial" font-size="12px" font-style="normal" font-weight="normal" text-decoration="" line-height="14px" x="16.265625" y="29">[</text><text fill="rgb(0, 0, 0)" stroke="none" font-family="Arial" font-size="12px" font-style="normal" font-weight="normal" text-decoration="" line-height="14px" x="19.59375" y="29">Remote</text><text fill="rgb(0, 0, 0)" stroke="none" font-family="Arial" font-size="12px" font-style="normal" font-weight="normal" text-decoration="" line-height="14px" x="64.9375" y="29">Events</text><text fill="rgb(0, 0, 0)" stroke="none" font-family="Arial" font-size="12px" font-style="normal" font-weight="normal" text-decoration="" line-height="14px" x="101.625" y="29">]</text></g></g><g transform="translate(0,0) matrix(1,0,0,1,381,230)"><g><g transform="translate(0,0) scale(1.4,0.8)"><g><path fill="#e69138" stroke="none" d="M 0 0 L 100 0 Q 100 0 100 0 L 100 100 Q 100 100 100 100 L 0 100 Q 0 100 0 100 L 0 0 Q 0 0 0 0 Z"/><g transform="scale(0.7142857142857143,1.25)"><path fill="none" stroke="none" d="M 0 0 L 140 0 Q 140 0 140 0 L 140 80 Q 140 80 140 80 L 0 80 Q 0 80 0 80 L 0 0 Q 0 0 0 0 Z"/><path fill="none" stroke="#ffffff" d="M 0 0 M 0 0 L 140 0 Q 140 0 140 0 L 140 80 Q 140 80 140 80 L 0 80 Q 0 80 0 80 L 0 0 Q 0 0 0 0 Z" stroke-miterlimit="10" stroke-width="2"/></g></g></g></g></g><g transform="matrix(1,0,0,1,391,254)"><g><g><rect fill="rgb(0,0,0)" stroke="none" x="0" y="0" width="121" height="32" fill-opacity="0"/></g></g><g><g><rect fill="rgb(0,0,0)" stroke="none" x="0" y="0" width="121" height="18" fill-opacity="0"/></g></g><g><g><rect fill="rgb(0,0,0)" stroke="none" x="31.734375" y="0" width="58" height="17" fill-opacity="0"/></g></g><g><g><rect fill="rgb(0,0,0)" stroke="none" x="31.734375" y="0" width="58" height="17" fill-opacity="0"/></g><text fill="rgb(0, 0, 0)" stroke="none" font-family="Arial" font-size="16px" font-style="normal" font-weight="normal" text-decoration="" line-height="18.5px" x="31.734375" y="14">Emitting</text></g><g><g><rect fill="rgb(0,0,0)" stroke="none" x="0" y="18" width="121" height="14" fill-opacity="0"/></g></g><g><g><rect fill="rgb(0,0,0)" stroke="none" x="17.265625" y="18" width="87" height="14" fill-opacity="0"/></g></g><g><g><rect fill="rgb(0,0,0)" stroke="none" x="17.265625" y="18" width="87" height="14" fill-opacity="0"/></g><text fill="rgb(0, 0, 0)" stroke="none" font-family="Arial" font-size="12px" font-style="normal" font-weight="normal" text-decoration="" line-height="14px" x="17.265625" y="29">[</text><text fill="rgb(0, 0, 0)" stroke="none" font-family="Arial" font-size="12px" font-style="normal" font-weight="normal" text-decoration="" line-height="14px" x="20.59375" y="29">Internal</text><text fill="rgb(0, 0, 0)" stroke="none" font-family="Arial" font-size="12px" font-style="normal" font-weight="normal" text-decoration="" line-height="14px" x="63.953125" y="29">Events</text><text fill="rgb(0, 0, 0)" stroke="none" font-family="Arial" font-size="12px" font-style="normal" font-weight="normal" text-decoration="" line-height="14px" x="100.640625" y="29">]</text></g></g><g transform="translate(0.5,0.5) matrix(1,0,0,1,80,232)"><g><g transform="translate(0,0) scale(0.2,0.77)"><g><path fill="#783f04" stroke="none" d="M 0 0 L 100 0 Q 100 0 100 0 L 100 100 Q 100 100 100 100 L 0 100 Q 0 100 0 100 L 0 0 Q 0 0 0 0 Z"/><g transform="scale(5,1.2987012987012987)"><path fill="none" stroke="none" d="M 0 0 L 20 0 Q 20 0 20 0 L 20 77 Q 20 77 20 77 L 0 77 Q 0 77 0 77 L 0 0 Q 0 0 0 0 Z"/><path fill="none" stroke="#783f04" d="M 0 0 M 0 0 L 20 0 Q 20 0 20 0 L 20 77 Q 20 77 20 77 L 0 77 Q 0 77 0 77 L 0 0 Q 0 0 0 0 Z" stroke-miterlimit="10"/></g></g></g></g></g><g transform="translate(0,0) matrix(1,0,0,1,70,450)"><g><g transform="translate(0,0) scale(6.09,1.0000000000000002)"><g><path fill="#ffffff" stroke="none" d="M 0 0 L 100 0 Q 100 0 100 0 L 100 100 Q 100 100 100 100 L 0 100 Q 0 100 0 100 L 0 0 Q 0 0 0 0 Z"/><g transform="scale(0.16420361247947454,0.9999999999999998)"><path fill="none" stroke="none" d="M 0 0 L 609 0 Q 609 0 609 0 L 609 100.00000000000003 Q 609 100.00000000000003 609 100.00000000000003 L 0 100.00000000000003 Q 0 100.00000000000003 0 100.00000000000003 L 0 0 Q 0 0 0 0 Z"/><path fill="none" stroke="#000000" d="M 0 0 M 0 0 L 609 0 Q 609 0 609 0 L 609 100.00000000000003 Q 609 100.00000000000003 609 100.00000000000003 L 0 100.00000000000003 Q 0 100.00000000000003 0 100.00000000000003 L 0 0 Q 0 0 0 0 Z" stroke-miterlimit="10" stroke-width="2"/></g></g></g></g></g><g transform="translate(0,0) matrix(1,0,0,1,79,458)"><g><g transform="translate(0,0) scale(1.4,0.8)"><g><path fill="#e69138" stroke="none" d="M 0 0 L 100 0 Q 100 0 100 0 L 100 100 Q 100 100 100 100 L 0 100 Q 0 100 0 100 L 0 0 Q 0 0 0 0 Z"/><g transform="scale(0.7142857142857143,1.25)"><path fill="none" stroke="none" d="M 0 0 L 140 0 Q 140 0 140 0 L 140 80 Q 140 80 140 80 L 0 80 Q 0 80 0 80 L 0 0 Q 0 0 0 0 Z"/><path fill="none" stroke="#e69138" d="M 0 0 M 0 0 L 140 0 Q 140 0 140 0 L 140 80 Q 140 80 140 80 L 0 80 Q 0 80 0 80 L 0 0 Q 0 0 0 0 Z" stroke-miterlimit="10" stroke-width="2"/></g></g></g></g></g><g transform="matrix(1,0,0,1,89,482)"><g><g><rect fill="rgb(0,0,0)" stroke="none" x="0" y="0" width="121" height="32" fill-opacity="0"/></g></g><g><g><rect fill="rgb(0,0,0)" stroke="none" x="0" y="0" width="121" height="18" fill-opacity="0"/></g></g><g><g><rect fill="rgb(0,0,0)" stroke="none" x="30.25" y="0" width="61" height="17" fill-opacity="0"/></g></g><g><g><rect fill="rgb(0,0,0)" stroke="none" x="30.25" y="0" width="61" height="17" fill-opacity="0"/></g><text fill="rgb(0, 0, 0)" stroke="none" font-family="Arial" font-size="16px" font-style="normal" font-weight="normal" text-decoration="" line-height="18.5px" x="30.25" y="14">Tracking</text></g><g><g/></g><g><g><rect fill="rgb(0,0,0)" stroke="none" x="0" y="18" width="121" height="14" fill-opacity="0"/></g></g><g><g><rect fill="rgb(0,0,0)" stroke="none" x="34.5" y="18" width="52" height="14" fill-opacity="0"/></g></g><g><g><rect fill="rgb(0,0,0)" stroke="none" x="34.5" y="18" width="52" height="14" fill-opacity="0"/></g><text fill="rgb(0, 0, 0)" stroke="none" font-family="Arial" font-size="12px" font-style="normal" font-weight="normal" text-decoration="" line-height="14px" x="34.5" y="29">[</text><text fill="rgb(0, 0, 0)" stroke="none" font-family="Arial" font-size="12px" font-style="normal" font-weight="normal" text-decoration="" line-height="14px" x="37.828125" y="29">Tracking</text><text fill="rgb(0, 0, 0)" stroke="none" font-family="Arial" font-size="12px" font-style="normal" font-weight="normal" text-decoration="" line-height="14px" x="83.390625" y="29">]</text></g></g><g transform="translate(0,0) matrix(1,0,0,1,230,458)"><g><g transform="translate(0,0) scale(1.4,0.8)"><g><path fill="#b45f06" stroke="none" d="M 0 0 L 100 0 Q 100 0 100 0 L 100 100 Q 100 100 100 100 L 0 100 Q 0 100 0 100 L 0 0 Q 0 0 0 0 Z"/><g transform="scale(0.7142857142857143,1.25)"><path fill="none" stroke="none" d="M 0 0 L 140 0 Q 140 0 140 0 L 140 80 Q 140 80 140 80 L 0 80 Q 0 80 0 80 L 0 0 Q 0 0 0 0 Z"/><path fill="none" stroke="#ffffff" d="M 0 0 M 0 0 L 140 0 Q 140 0 140 0 L 140 80 Q 140 80 140 80 L 0 80 Q 0 80 0 80 L 0 0 Q 0 0 0 0 Z" stroke-miterlimit="10" stroke-width="2"/></g></g></g></g></g><g transform="matrix(1,0,0,1,240,482)"><g><g><rect fill="rgb(0,0,0)" stroke="none" x="0" y="0" width="121" height="32" fill-opacity="0"/></g></g><g><g><rect fill="rgb(0,0,0)" stroke="none" x="0" y="0" width="121" height="18" fill-opacity="0"/></g></g><g><g><rect fill="rgb(0,0,0)" stroke="none" x="20.15625" y="0" width="81" height="17" fill-opacity="0"/></g></g><g><g><rect fill="rgb(0,0,0)" stroke="none" x="20.15625" y="0" width="81" height="17" fill-opacity="0"/></g><text fill="rgb(0, 0, 0)" stroke="none" font-family="Arial" font-size="16px" font-style="normal" font-weight="normal" text-decoration="" line-height="18.5px" x="20.15625" y="14">Connection</text></g><g><g><rect fill="rgb(0,0,0)" stroke="none" x="0" y="18" width="121" height="14" fill-opacity="0"/></g></g><g><g><rect fill="rgb(0,0,0)" stroke="none" x="26.9375" y="18" width="67" height="14" fill-opacity="0"/></g></g><g><g><rect fill="rgb(0,0,0)" stroke="none" x="26.9375" y="18" width="67" height="14" fill-opacity="0"/></g><text fill="rgb(0, 0, 0)" stroke="none" font-family="Arial" font-size="12px" font-style="normal" font-weight="normal" text-decoration="" line-height="14px" x="26.9375" y="29">[</text><text fill="rgb(0, 0, 0)" stroke="none" font-family="Arial" font-size="12px" font-style="normal" font-weight="normal" text-decoration="" line-height="14px" x="30.265625" y="29">Connection</text><text fill="rgb(0, 0, 0)" stroke="none" font-family="Arial" font-size="12px" font-style="normal" font-weight="normal" text-decoration="" line-height="14px" x="90.96875" y="29">]</text></g></g><g transform="translate(0,0) matrix(1,0,0,1,380,458)"><g><g transform="translate(0,0) scale(1.4,0.8)"><g><path fill="#b45f06" stroke="none" d="M 0 0 L 100 0 Q 100 0 100 0 L 100 100 Q 100 100 100 100 L 0 100 Q 0 100 0 100 L 0 0 Q 0 0 0 0 Z"/><g transform="scale(0.7142857142857143,1.25)"><path fill="none" stroke="none" d="M 0 0 L 140 0 Q 140 0 140 0 L 140 80 Q 140 80 140 80 L 0 80 Q 0 80 0 80 L 0 0 Q 0 0 0 0 Z"/><path fill="none" stroke="#ffffff" d="M 0 0 M 0 0 L 140 0 Q 140 0 140 0 L 140 80 Q 140 80 140 80 L 0 80 Q 0 80 0 80 L 0 0 Q 0 0 0 0 Z" stroke-miterlimit="10" stroke-width="2"/></g></g></g></g></g><g transform="matrix(1,0,0,1,390,482)"><g><g><rect fill="rgb(0,0,0)" stroke="none" x="0" y="0" width="121" height="32" fill-opacity="0"/></g></g><g><g><rect fill="rgb(0,0,0)" stroke="none" x="0" y="0" width="121" height="18" fill-opacity="0"/></g></g><g><g><rect fill="rgb(0,0,0)" stroke="none" x="35.71875" y="0" width="50" height="17" fill-opacity="0"/></g></g><g><g><rect fill="rgb(0,0,0)" stroke="none" x="35.71875" y="0" width="50" height="17" fill-opacity="0"/></g><text fill="rgb(0, 0, 0)" stroke="none" font-family="Arial" font-size="16px" font-style="normal" font-weight="normal" text-decoration="" line-height="18.5px" x="35.71875" y="14">Scope</text></g><g><g><rect fill="rgb(0,0,0)" stroke="none" x="0" y="18" width="121" height="14" fill-opacity="0"/></g></g><g><g><rect fill="rgb(0,0,0)" stroke="none" x="40.28125" y="18" width="41" height="14" fill-opacity="0"/></g></g><g><g><rect fill="rgb(0,0,0)" stroke="none" x="40.28125" y="18" width="41" height="14" fill-opacity="0"/></g><text fill="rgb(0, 0, 0)" stroke="none" font-family="Arial" font-size="12px" font-style="normal" font-weight="normal" text-decoration="" line-height="14px" x="40.28125" y="29">[</text><text fill="rgb(0, 0, 0)" stroke="none" font-family="Arial" font-size="12px" font-style="normal" font-weight="normal" text-decoration="" line-height="14px" x="43.609375" y="29">Scope</text><text fill="rgb(0, 0, 0)" stroke="none" font-family="Arial" font-size="12px" font-style="normal" font-weight="normal" text-decoration="" line-height="14px" x="77.640625" y="29">]</text></g></g><g transform="translate(0,0) matrix(1,0,0,1,531,458)"><g><g transform="translate(0,0) scale(1.4,0.8)"><g><path fill="#b45f06" stroke="none" d="M 0 0 L 100 0 Q 100 0 100 0 L 100 100 Q 100 100 100 100 L 0 100 Q 0 100 0 100 L 0 0 Q 0 0 0 0 Z"/><g transform="scale(0.7142857142857143,1.25)"><path fill="none" stroke="none" d="M 0 0 L 140 0 Q 140 0 140 0 L 140 80 Q 140 80 140 80 L 0 80 Q 0 80 0 80 L 0 0 Q 0 0 0 0 Z"/><path fill="none" stroke="#ffffff" d="M 0 0 M 0 0 L 140 0 Q 140 0 140 0 L 140 80 Q 140 80 140 80 L 0 80 Q 0 80 0 80 L 0 0 Q 0 0 0 0 Z" stroke-miterlimit="10" stroke-width="2"/></g></g></g></g></g><g transform="matrix(1,0,0,1,541,482)"><g><g><rect fill="rgb(0,0,0)" stroke="none" x="0" y="0" width="121" height="32" fill-opacity="0"/></g></g><g><g><rect fill="rgb(0,0,0)" stroke="none" x="0" y="0" width="121" height="18" fill-opacity="0"/></g></g><g><g><rect fill="rgb(0,0,0)" stroke="none" x="34.84375" y="0" width="51" height="17" fill-opacity="0"/></g></g><g><g><rect fill="rgb(0,0,0)" stroke="none" x="34.84375" y="0" width="51" height="17" fill-opacity="0"/></g><text fill="rgb(0, 0, 0)" stroke="none" font-family="Arial" font-size="16px" font-style="normal" font-weight="normal" text-decoration="" line-height="18.5px" x="34.84375" y="14">Record</text></g><g><g><rect fill="rgb(0,0,0)" stroke="none" x="0" y="18" width="121" height="14" fill-opacity="0"/></g></g><g><g><rect fill="rgb(0,0,0)" stroke="none" x="37.953125" y="18" width="45" height="14" fill-opacity="0"/></g></g><g><g><rect fill="rgb(0,0,0)" stroke="none" x="37.953125" y="18" width="45" height="14" fill-opacity="0"/></g><text fill="rgb(0, 0, 0)" stroke="none" font-family="Arial" font-size="12px" font-style="normal" font-weight="normal" text-decoration="" line-height="14px" x="37.953125" y="29">[</text><text fill="rgb(0, 0, 0)" stroke="none" font-family="Arial" font-size="12px" font-style="normal" font-weight="normal" text-decoration="" line-height="14px" x="41.28125" y="29">Record</text><text fill="rgb(0, 0, 0)" stroke="none" font-family="Arial" font-size="12px" font-style="normal" font-weight="normal" text-decoration="" line-height="14px" x="79.96875" y="29">]</text></g></g><g transform="translate(0,0) matrix(1,0,0,1,70,370)"><g><g transform="translate(0,0) scale(6.089999999999999,0.6)"><g><path fill="#e69138" stroke="none" d="M 0 0 L 100 0 Q 100 0 100 0 L 100 100 Q 100 100 100 100 L 0 100 Q 0 100 0 100 L 0 0 Q 0 0 0 0 Z"/><g transform="scale(0.16420361247947457,1.6666666666666667)"><path fill="none" stroke="none" d="M 0 0 L 608.9999999999999 0 Q 608.9999999999999 0 608.9999999999999 0 L 608.9999999999999 60 Q 608.9999999999999 60 608.9999999999999 60 L 0 60 Q 0 60 0 60 L 0 0 Q 0 0 0 0 Z"/><path fill="none" stroke="#e69138" d="M 0 0 M 0 0 L 608.9999999999999 0 Q 608.9999999999999 0 608.9999999999999 0 L 608.9999999999999 60 Q 608.9999999999999 60 608.9999999999999 60 L 0 60 Q 0 60 0 60 L 0 0 Q 0 0 0 0 Z" stroke-miterlimit="10" stroke-width="2"/></g></g></g></g></g><g transform="matrix(1,0,0,1,86,384)"><g><g><rect fill="rgb(0,0,0)" stroke="none" x="0" y="0" width="578" height="32" fill-opacity="0"/></g></g><g><g><rect fill="rgb(0,0,0)" stroke="none" x="0" y="0" width="578" height="18" fill-opacity="0"/></g></g><g><g><rect fill="rgb(0,0,0)" stroke="none" x="258.484375" y="0" width="61" height="17" fill-opacity="0"/></g></g><g><g><rect fill="rgb(0,0,0)" stroke="none" x="258.484375" y="0" width="61" height="17" fill-opacity="0"/></g><text fill="rgb(0, 0, 0)" stroke="none" font-family="Arial" font-size="16px" font-style="normal" font-weight="normal" text-decoration="" line-height="18.5px" x="258.484375" y="14">Tracking</text></g><g><g><rect fill="rgb(0,0,0)" stroke="none" x="0" y="18" width="578" height="14" fill-opacity="0"/></g></g><g><g><rect fill="rgb(0,0,0)" stroke="none" x="262.75" y="18" width="52" height="14" fill-opacity="0"/></g></g><g><g><rect fill="rgb(0,0,0)" stroke="none" x="262.75" y="18" width="52" height="14" fill-opacity="0"/></g><text fill="rgb(0, 0, 0)" stroke="none" font-family="Arial" font-size="12px" font-style="normal" font-weight="normal" text-decoration="" line-height="14px" x="262.75" y="29">[</text><text fill="rgb(0, 0, 0)" stroke="none" font-family="Arial" font-size="12px" font-style="normal" font-weight="normal" text-decoration="" line-height="14px" x="266.078125" y="29">Tracking</text><text fill="rgb(0, 0, 0)" stroke="none" font-family="Arial" font-size="12px" font-style="normal" font-weight="normal" text-decoration="" line-height="14px" x="311.640625" y="29">]</text></g></g><g transform="translate(0.5,0.5) matrix(1,0,0,1,230,231)"><g><g transform="translate(0,0) scale(0.2,0.77)"><g><path fill="#783f04" stroke="none" d="M 0 0 L 100 0 Q 100 0 100 0 L 100 100 Q 100 100 100 100 L 0 100 Q 0 100 0 100 L 0 0 Q 0 0 0 0 Z"/><g transform="scale(5,1.2987012987012987)"><path fill="none" stroke="none" d="M 0 0 L 20 0 Q 20 0 20 0 L 20 77 Q 20 77 20 77 L 0 77 Q 0 77 0 77 L 0 0 Q 0 0 0 0 Z"/><path fill="none" stroke="#783f04" d="M 0 0 M 0 0 L 20 0 Q 20 0 20 0 L 20 77 Q 20 77 20 77 L 0 77 Q 0 77 0 77 L 0 0 Q 0 0 0 0 Z" stroke-miterlimit="10"/></g></g></g></g></g><g transform="translate(0.5,0.5) matrix(1,0,0,1,382,232)"><g><g transform="translate(0,0) scale(0.2,0.77)"><g><path fill="#783f04" stroke="none" d="M 0 0 L 100 0 Q 100 0 100 0 L 100 100 Q 100 100 100 100 L 0 100 Q 0 100 0 100 L 0 0 Q 0 0 0 0 Z"/><g transform="scale(5,1.2987012987012987)"><path fill="none" stroke="none" d="M 0 0 L 20 0 Q 20 0 20 0 L 20 77 Q 20 77 20 77 L 0 77 Q 0 77 0 77 L 0 0 Q 0 0 0 0 Z"/><path fill="none" stroke="#783f04" d="M 0 0 M 0 0 L 20 0 Q 20 0 20 0 L 20 77 Q 20 77 20 77 L 0 77 Q 0 77 0 77 L 0 0 Q 0 0 0 0 Z" stroke-miterlimit="10"/></g></g></g></g></g></g></svg>