<svg version="1.1" xmlns="http://www.w3.org/2000/svg" xmlns:xlink="http://www.w3.org/1999/xlink" width="704.6117647058821" height="318"><style xmlns="http://www.w3.org/1999/xhtml"></style><defs/><g transform="translate(0,0)"><g><rect fill="#FFFFFF" stroke="none" x="0" y="0" width="704.6117647058821" height="318"/></g><g transform="translate(0,0) matrix(1,0,0,1,70,20)"><g><g transform="translate(0,0) scale(6.09,0.6)"><g><path fill="#ff9900" stroke="none" d="M 0 0 L 100 0 Q 100 0 100 0 L 100 100 Q 100 100 100 100 L 0 100 Q 0 100 0 100 L 0 0 Q 0 0 0 0 Z"/><g transform="scale(0.16420361247947454,1.6666666666666667)"><path fill="none" stroke="none" d="M 0 0 L 609 0 Q 609 0 609 0 L 609 60 Q 609 60 609 60 L 0 60 Q 0 60 0 60 L 0 0 Q 0 0 0 0 Z"/><path fill="none" stroke="#ffffff" d="M 0 0 M 0 0 L 609 0 Q 609 0 609 0 L 609 60 Q 609 60 609 60 L 0 60 Q 0 60 0 60 L 0 0 Q 0 0 0 0 Z" stroke-miterlimit="10" stroke-width="2"/></g></g></g></g></g><g transform="matrix(1,0,0,1,80,34)"><g><g><rect fill="rgb(0,0,0)" stroke="none" x="0" y="0" width="589" height="32" fill-opacity="0"/></g></g><g><g><rect fill="rgb(0,0,0)" stroke="none" x="0" y="0" width="589" height="32" fill-opacity="0"/></g></g><g><g><rect fill="rgb(0,0,0)" stroke="none" x="210.90625" y="0" width="167" height="32" fill-opacity="0"/></g></g><g><g><rect fill="rgb(0,0,0)" stroke="none" x="210.90625" y="0" width="167" height="32" fill-opacity="0"/></g></g><g><g><rect fill="rgb(0,0,0)" stroke="none" x="210.90625" y="0" width="167" height="17" fill-opacity="0"/></g><text fill="rgb(0, 0, 0)" stroke="none" font-family="Arial" font-size="16px" font-style="normal" font-weight="700" text-decoration="" line-height="18.5px" x="210.90625" y="14">GrapqhQL</text><text fill="rgb(0, 0, 0)" stroke="none" font-family="Arial" font-size="16px" font-style="normal" font-weight="700" text-decoration="" line-height="18.5px" x="290.015625" y="14">-</text><text fill="rgb(0, 0, 0)" stroke="none" font-family="Arial" font-size="16px" font-style="normal" font-weight="700" text-decoration="" line-height="18.5px" x="295.34375" y="14">Tools</text><text fill="rgb(0, 0, 0)" stroke="none" font-family="Arial" font-size="16px" font-style="normal" font-weight="700" text-decoration="" line-height="18.5px" x="336.8125" y="14">-</text><text fill="rgb(0, 0, 0)" stroke="none" font-family="Arial" font-size="16px" font-style="normal" font-weight="700" text-decoration="" line-height="18.5px" x="342.140625" y="14">Type</text></g><g><g/></g><g><g><rect fill="rgb(0,0,0)" stroke="none" x="247.234375" y="18" width="95" height="14" fill-opacity="0"/></g><text fill="rgb(0, 0, 0)" stroke="none" font-family="Arial" font-size="12px" font-style="normal" font-weight="normal" text-decoration="" line-height="14px" x="247.234375" y="29">[</text><text fill="rgb(0, 0, 0)" stroke="none" font-family="Arial" font-size="12px" font-style="normal" font-weight="normal" text-decoration="" line-height="14px" x="250.5625" y="29">graphqlio</text><text fill="rgb(0, 0, 0)" stroke="none" font-family="Arial" font-size="12px" font-style="normal" font-weight="normal" text-decoration="" line-height="14px" x="299.9375" y="29">-</text><text fill="rgb(0, 0, 0)" stroke="none" font-family="Arial" font-size="12px" font-style="normal" font-weight="normal" text-decoration="" line-height="14px" x="303.921875" y="29">java</text><text fill="rgb(0, 0, 0)" stroke="none" font-family="Arial" font-size="12px" font-style="normal" font-weight="normal" text-decoration="" line-height="14px" x="325.9375" y="29">.</text><text fill="rgb(0, 0, 0)" stroke="none" font-family="Arial" font-size="12px" font-style="normal" font-weight="normal" text-decoration="" line-height="14px" x="329.28125" y="29">io</text><text fill="rgb(0, 0, 0)" stroke="none" font-family="Arial" font-size="12px" font-style="normal" font-weight="normal" text-decoration="" line-height="14px" x="338.609375" y="29">]</text></g></g><g transform="translate(0,0) matrix(1,0,0,1,70,110)"><g><g transform="translate(0,0) scale(6.09,1.88)"><g><path fill="#ffffff" stroke="none" d="M 0 0 L 100 0 Q 100 0 100 0 L 100 100 Q 100 100 100 100 L 0 100 Q 0 100 0 100 L 0 0 Q 0 0 0 0 Z"/><g transform="scale(0.16420361247947454,0.5319148936170213)"><path fill="none" stroke="none" d="M 0 0 L 609 0 Q 609 0 609 0 L 609 188 Q 609 188 609 188 L 0 188 Q 0 188 0 188 L 0 0 Q 0 0 0 0 Z"/><path fill="none" stroke="#000000" d="M 0 0 M 0 0 L 609 0 Q 609 0 609 0 L 609 188 Q 609 188 609 188 L 0 188 Q 0 188 0 188 L 0 0 Q 0 0 0 0 Z" stroke-miterlimit="10" stroke-width="2"/></g></g></g></g></g><g transform="translate(0,0) matrix(1,0,0,1,380,210)"><g><g transform="translate(0,0) scale(1.4,0.8)"><g><path fill="#e69138" stroke="none" d="M 0 0 L 100 0 Q 100 0 100 0 L 100 100 Q 100 100 100 100 L 0 100 Q 0 100 0 100 L 0 0 Q 0 0 0 0 Z"/><g transform="scale(0.7142857142857143,1.25)"><path fill="none" stroke="none" d="M 0 0 L 140 0 Q 140 0 140 0 L 140 80 Q 140 80 140 80 L 0 80 Q 0 80 0 80 L 0 0 Q 0 0 0 0 Z"/><path fill="none" stroke="#e69138" d="M 0 0 M 0 0 L 140 0 Q 140 0 140 0 L 140 80 Q 140 80 140 80 L 0 80 Q 0 80 0 80 L 0 0 Q 0 0 0 0 Z" stroke-miterlimit="10" stroke-width="2"/></g></g></g></g></g><g transform="matrix(1,0,0,1,390,234)"><g><g><rect fill="rgb(0,0,0)" stroke="none" x="0" y="0" width="121" height="32" fill-opacity="0"/></g></g><g><g><rect fill="rgb(0,0,0)" stroke="none" x="0" y="0" width="121" height="18" fill-opacity="0"/></g></g><g><g><rect fill="rgb(0,0,0)" stroke="none" x="45.0625" y="0" width="31" height="17" fill-opacity="0"/></g></g><g><g><rect fill="rgb(0,0,0)" stroke="none" x="45.0625" y="0" width="31" height="17" fill-opacity="0"/></g><text fill="rgb(0, 0, 0)" stroke="none" font-family="Arial" font-size="16px" font-style="normal" font-weight="normal" text-decoration="" line-height="18.5px" x="45.0625" y="14">Void</text></g><g><g><rect fill="rgb(0,0,0)" stroke="none" x="0" y="18" width="121" height="14" fill-opacity="0"/></g></g><g><g><rect fill="rgb(0,0,0)" stroke="none" x="22.828125" y="18" width="75" height="14" fill-opacity="0"/></g></g><g><g><rect fill="rgb(0,0,0)" stroke="none" x="22.828125" y="18" width="75" height="14" fill-opacity="0"/></g><text fill="rgb(0, 0, 0)" stroke="none" font-family="Arial" font-size="12px" font-style="normal" font-weight="normal" text-decoration="" line-height="14px" x="22.828125" y="29">GraphQL</text><text fill="rgb(0, 0, 0)" stroke="none" font-family="Arial" font-size="12px" font-style="normal" font-weight="normal" text-decoration="" line-height="14px" x="75.0625" y="29">Void</text></g></g><g transform="translate(0,0) matrix(1,0,0,1,230,118)"><g><g transform="translate(0,0) scale(1.4,0.8)"><g><path fill="#e69138" stroke="none" d="M 0 0 L 100 0 Q 100 0 100 0 L 100 100 Q 100 100 100 100 L 0 100 Q 0 100 0 100 L 0 0 Q 0 0 0 0 Z"/><g transform="scale(0.7142857142857143,1.25)"><path fill="none" stroke="none" d="M 0 0 L 140 0 Q 140 0 140 0 L 140 80 Q 140 80 140 80 L 0 80 Q 0 80 0 80 L 0 0 Q 0 0 0 0 Z"/><path fill="none" stroke="#e69138" d="M 0 0 M 0 0 L 140 0 Q 140 0 140 0 L 140 80 Q 140 80 140 80 L 0 80 Q 0 80 0 80 L 0 0 Q 0 0 0 0 Z" stroke-miterlimit="10" stroke-width="2"/></g></g></g></g></g><g transform="matrix(1,0,0,1,240,142)"><g><g><rect fill="rgb(0,0,0)" stroke="none" x="0" y="0" width="121" height="32" fill-opacity="0"/></g></g><g><g><rect fill="rgb(0,0,0)" stroke="none" x="0" y="0" width="121" height="18" fill-opacity="0"/></g></g><g><g><rect fill="rgb(0,0,0)" stroke="none" x="51.734375" y="0" width="18" height="17" fill-opacity="0"/></g></g><g><g><rect fill="rgb(0,0,0)" stroke="none" x="51.734375" y="0" width="18" height="17" fill-opacity="0"/></g><text fill="rgb(0, 0, 0)" stroke="none" font-family="Arial" font-size="16px" font-style="normal" font-weight="normal" text-decoration="" line-height="18.5px" x="51.734375" y="14">Int</text></g><g><g><rect fill="rgb(0,0,0)" stroke="none" x="0" y="18" width="121" height="14" fill-opacity="0"/></g></g><g><g><rect fill="rgb(0,0,0)" stroke="none" x="12.484375" y="18" width="97" height="14" fill-opacity="0"/></g></g><g><g><rect fill="rgb(0,0,0)" stroke="none" x="12.484375" y="18" width="97" height="14" fill-opacity="0"/></g><text fill="rgb(0, 0, 0)" stroke="none" font-family="Arial" font-size="12px" font-style="normal" font-weight="normal" text-decoration="" line-height="14px" x="12.484375" y="29">[</text><text fill="rgb(0, 0, 0)" stroke="none" font-family="Arial" font-size="12px" font-style="normal" font-weight="normal" text-decoration="" line-height="14px" x="15.8125" y="29">GraphQL</text><text fill="rgb(0, 0, 0)" stroke="none" font-family="Arial" font-size="12px" font-style="normal" font-weight="normal" text-decoration="" line-height="14px" x="68.0625" y="29">Integer</text><text fill="rgb(0, 0, 0)" stroke="none" font-family="Arial" font-size="12px" font-style="normal" font-weight="normal" text-decoration="" line-height="14px" x="105.421875" y="29">]</text></g></g><g transform="translate(0,0) matrix(1,0,0,1,380,118)"><g><g transform="translate(0,0) scale(1.4,0.8)"><g><path fill="#e69138" stroke="none" d="M 0 0 L 100 0 Q 100 0 100 0 L 100 100 Q 100 100 100 100 L 0 100 Q 0 100 0 100 L 0 0 Q 0 0 0 0 Z"/><g transform="scale(0.7142857142857143,1.25)"><path fill="none" stroke="none" d="M 0 0 L 140 0 Q 140 0 140 0 L 140 80 Q 140 80 140 80 L 0 80 Q 0 80 0 80 L 0 0 Q 0 0 0 0 Z"/><path fill="none" stroke="#e69138" d="M 0 0 M 0 0 L 140 0 Q 140 0 140 0 L 140 80 Q 140 80 140 80 L 0 80 Q 0 80 0 80 L 0 0 Q 0 0 0 0 Z" stroke-miterlimit="10" stroke-width="2"/></g></g></g></g></g><g transform="matrix(1,0,0,1,390,142)"><g><g><rect fill="rgb(0,0,0)" stroke="none" x="0" y="0" width="121" height="32" fill-opacity="0"/></g></g><g><g><rect fill="rgb(0,0,0)" stroke="none" x="0" y="0" width="121" height="18" fill-opacity="0"/></g></g><g><g><rect fill="rgb(0,0,0)" stroke="none" x="42.84375" y="0" width="35" height="17" fill-opacity="0"/></g></g><g><g><rect fill="rgb(0,0,0)" stroke="none" x="42.84375" y="0" width="35" height="17" fill-opacity="0"/></g><text fill="rgb(0, 0, 0)" stroke="none" font-family="Arial" font-size="16px" font-style="normal" font-weight="normal" text-decoration="" line-height="18.5px" x="42.84375" y="14">Float</text></g><g><g><rect fill="rgb(0,0,0)" stroke="none" x="0" y="18" width="121" height="14" fill-opacity="0"/></g></g><g><g><rect fill="rgb(0,0,0)" stroke="none" x="17.828125" y="18" width="85" height="14" fill-opacity="0"/></g></g><g><g><rect fill="rgb(0,0,0)" stroke="none" x="17.828125" y="18" width="85" height="14" fill-opacity="0"/></g><text fill="rgb(0, 0, 0)" stroke="none" font-family="Arial" font-size="12px" font-style="normal" font-weight="normal" text-decoration="" line-height="14px" x="17.828125" y="29">[</text><text fill="rgb(0, 0, 0)" stroke="none" font-family="Arial" font-size="12px" font-style="normal" font-weight="normal" text-decoration="" line-height="14px" x="21.15625" y="29">GraphQL</text><text fill="rgb(0, 0, 0)" stroke="none" font-family="Arial" font-size="12px" font-style="normal" font-weight="normal" text-decoration="" line-height="14px" x="73.40625" y="29">Float</text><text fill="rgb(0, 0, 0)" stroke="none" font-family="Arial" font-size="12px" font-style="normal" font-weight="normal" text-decoration="" line-height="14px" x="100.078125" y="29">]</text></g></g><g transform="translate(0,0) matrix(1,0,0,1,531,118)"><g><g transform="translate(0,0) scale(1.4,0.8)"><g><path fill="#e69138" stroke="none" d="M 0 0 L 100 0 Q 100 0 100 0 L 100 100 Q 100 100 100 100 L 0 100 Q 0 100 0 100 L 0 0 Q 0 0 0 0 Z"/><g transform="scale(0.7142857142857143,1.25)"><path fill="none" stroke="none" d="M 0 0 L 140 0 Q 140 0 140 0 L 140 80 Q 140 80 140 80 L 0 80 Q 0 80 0 80 L 0 0 Q 0 0 0 0 Z"/><path fill="none" stroke="#e69138" d="M 0 0 M 0 0 L 140 0 Q 140 0 140 0 L 140 80 Q 140 80 140 80 L 0 80 Q 0 80 0 80 L 0 0 Q 0 0 0 0 Z" stroke-miterlimit="10" stroke-width="2"/></g></g></g></g></g><g transform="matrix(1,0,0,1,541,142)"><g><g><rect fill="rgb(0,0,0)" stroke="none" x="0" y="0" width="121" height="32" fill-opacity="0"/></g></g><g><g><rect fill="rgb(0,0,0)" stroke="none" x="0" y="0" width="121" height="18" fill-opacity="0"/></g></g><g><g><rect fill="rgb(0,0,0)" stroke="none" x="43.734375" y="0" width="34" height="17" fill-opacity="0"/></g></g><g><g><rect fill="rgb(0,0,0)" stroke="none" x="43.734375" y="0" width="34" height="17" fill-opacity="0"/></g><text fill="rgb(0, 0, 0)" stroke="none" font-family="Arial" font-size="16px" font-style="normal" font-weight="normal" text-decoration="" line-height="18.5px" x="43.734375" y="14">Date</text></g><g><g><rect fill="rgb(0,0,0)" stroke="none" x="0" y="18" width="121" height="14" fill-opacity="0"/></g></g><g><g><rect fill="rgb(0,0,0)" stroke="none" x="18.5" y="18" width="84" height="14" fill-opacity="0"/></g></g><g><g><rect fill="rgb(0,0,0)" stroke="none" x="18.5" y="18" width="84" height="14" fill-opacity="0"/></g><text fill="rgb(0, 0, 0)" stroke="none" font-family="Arial" font-size="12px" font-style="normal" font-weight="normal" text-decoration="" line-height="14px" x="18.5" y="29">[</text><text fill="rgb(0, 0, 0)" stroke="none" font-family="Arial" font-size="12px" font-style="normal" font-weight="normal" text-decoration="" line-height="14px" x="21.828125" y="29">GraphQL</text><text fill="rgb(0, 0, 0)" stroke="none" font-family="Arial" font-size="12px" font-style="normal" font-weight="normal" text-decoration="" line-height="14px" x="74.078125" y="29">Date</text><text fill="rgb(0, 0, 0)" stroke="none" font-family="Arial" font-size="12px" font-style="normal" font-weight="normal" text-decoration="" line-height="14px" x="99.421875" y="29">]</text></g></g><g transform="translate(0,0) matrix(1,0,0,1,80,210)"><g><g transform="translate(0,0) scale(1.4,0.8)"><g><path fill="#e69138" stroke="none" d="M 0 0 L 100 0 Q 100 0 100 0 L 100 100 Q 100 100 100 100 L 0 100 Q 0 100 0 100 L 0 0 Q 0 0 0 0 Z"/><g transform="scale(0.7142857142857143,1.25)"><path fill="none" stroke="none" d="M 0 0 L 140 0 Q 140 0 140 0 L 140 80 Q 140 80 140 80 L 0 80 Q 0 80 0 80 L 0 0 Q 0 0 0 0 Z"/><path fill="none" stroke="#ffffff" d="M 0 0 M 0 0 L 140 0 Q 140 0 140 0 L 140 80 Q 140 80 140 80 L 0 80 Q 0 80 0 80 L 0 0 Q 0 0 0 0 Z" stroke-miterlimit="10" stroke-width="2"/></g></g></g></g></g><g transform="matrix(1,0,0,1,90,234)"><g><g><rect fill="rgb(0,0,0)" stroke="none" x="0" y="0" width="121" height="32" fill-opacity="0"/></g></g><g><g><rect fill="rgb(0,0,0)" stroke="none" x="0" y="0" width="121" height="18" fill-opacity="0"/></g></g><g><g><rect fill="rgb(0,0,0)" stroke="none" x="41.078125" y="0" width="39" height="17" fill-opacity="0"/></g></g><g><g><rect fill="rgb(0,0,0)" stroke="none" x="41.078125" y="0" width="39" height="17" fill-opacity="0"/></g><text fill="rgb(0, 0, 0)" stroke="none" font-family="Arial" font-size="16px" font-style="normal" font-weight="normal" text-decoration="" line-height="18.5px" x="41.078125" y="14">UUID</text></g><g><g><rect fill="rgb(0,0,0)" stroke="none" x="0" y="18" width="121" height="14" fill-opacity="0"/></g></g><g><g><rect fill="rgb(0,0,0)" stroke="none" x="16.5" y="18" width="88" height="14" fill-opacity="0"/></g></g><g><g><rect fill="rgb(0,0,0)" stroke="none" x="16.5" y="18" width="88" height="14" fill-opacity="0"/></g><text fill="rgb(0, 0, 0)" stroke="none" font-family="Arial" font-size="12px" font-style="normal" font-weight="normal" text-decoration="" line-height="14px" x="16.5" y="29">[</text><text fill="rgb(0, 0, 0)" stroke="none" font-family="Arial" font-size="12px" font-style="normal" font-weight="normal" text-decoration="" line-height="14px" x="19.828125" y="29">GraphQL</text><text fill="rgb(0, 0, 0)" stroke="none" font-family="Arial" font-size="12px" font-style="normal" font-weight="normal" text-decoration="" line-height="14px" x="72.078125" y="29">UUID</text><text fill="rgb(0, 0, 0)" stroke="none" font-family="Arial" font-size="12px" font-style="normal" font-weight="normal" text-decoration="" line-height="14px" x="101.40625" y="29">]</text></g></g><g transform="translate(0,0) matrix(1,0,0,1,230,210)"><g><g transform="translate(0,0) scale(1.4,0.8)"><g><path fill="#e69138" stroke="none" d="M 0 0 L 100 0 Q 100 0 100 0 L 100 100 Q 100 100 100 100 L 0 100 Q 0 100 0 100 L 0 0 Q 0 0 0 0 Z"/><g transform="scale(0.7142857142857143,1.25)"><path fill="none" stroke="none" d="M 0 0 L 140 0 Q 140 0 140 0 L 140 80 Q 140 80 140 80 L 0 80 Q 0 80 0 80 L 0 0 Q 0 0 0 0 Z"/><path fill="none" stroke="#ffffff" d="M 0 0 M 0 0 L 140 0 Q 140 0 140 0 L 140 80 Q 140 80 140 80 L 0 80 Q 0 80 0 80 L 0 0 Q 0 0 0 0 Z" stroke-miterlimit="10" stroke-width="2"/></g></g></g></g></g><g transform="matrix(1,0,0,1,240,234)"><g><g><rect fill="rgb(0,0,0)" stroke="none" x="0" y="0" width="121" height="32" fill-opacity="0"/></g></g><g><g><rect fill="rgb(0,0,0)" stroke="none" x="0" y="0" width="121" height="18" fill-opacity="0"/></g></g><g><g><rect fill="rgb(0,0,0)" stroke="none" x="37.0625" y="0" width="47" height="17" fill-opacity="0"/></g></g><g><g><rect fill="rgb(0,0,0)" stroke="none" x="37.0625" y="0" width="47" height="17" fill-opacity="0"/></g><text fill="rgb(0, 0, 0)" stroke="none" font-family="Arial" font-size="16px" font-style="normal" font-weight="normal" text-decoration="" line-height="18.5px" x="37.0625" y="14">JSON</text></g><g><g><rect fill="rgb(0,0,0)" stroke="none" x="0" y="18" width="121" height="14" fill-opacity="0"/></g></g><g><g><rect fill="rgb(0,0,0)" stroke="none" x="15.171875" y="18" width="91" height="14" fill-opacity="0"/></g></g><g><g><rect fill="rgb(0,0,0)" stroke="none" x="15.171875" y="18" width="91" height="14" fill-opacity="0"/></g><text fill="rgb(0, 0, 0)" stroke="none" font-family="Arial" font-size="12px" font-style="normal" font-weight="normal" text-decoration="" line-height="14px" x="15.171875" y="29">[</text><text fill="rgb(0, 0, 0)" stroke="none" font-family="Arial" font-size="12px" font-style="normal" font-weight="normal" text-decoration="" line-height="14px" x="18.5" y="29">GraphQL</text><text fill="rgb(0, 0, 0)" stroke="none" font-family="Arial" font-size="12px" font-style="normal" font-weight="normal" text-decoration="" line-height="14px" x="70.75" y="29">JSON</text><text fill="rgb(0, 0, 0)" stroke="none" font-family="Arial" font-size="12px" font-style="normal" font-weight="normal" text-decoration="" line-height="14px" x="102.75" y="29">]</text></g></g><g transform="translate(0,0) matrix(1,0,0,1,80,118)"><g><g transform="translate(0,0) scale(1.4,0.8)"><g><path fill="#ff9900" stroke="none" d="M 0 0 L 100 0 Q 100 0 100 0 L 100 100 Q 100 100 100 100 L 0 100 Q 0 100 0 100 L 0 0 Q 0 0 0 0 Z"/><g transform="scale(0.7142857142857143,1.25)"><path fill="none" stroke="none" d="M 0 0 L 140 0 Q 140 0 140 0 L 140 80 Q 140 80 140 80 L 0 80 Q 0 80 0 80 L 0 0 Q 0 0 0 0 Z"/><path fill="none" stroke="#ffffff" d="M 0 0 M 0 0 L 140 0 Q 140 0 140 0 L 140 80 Q 140 80 140 80 L 0 80 Q 0 80 0 80 L 0 0 Q 0 0 0 0 Z" stroke-miterlimit="10" stroke-width="2"/></g></g></g></g></g><g transform="matrix(1,0,0,1,90,142)"><g><g><rect fill="rgb(0,0,0)" stroke="none" x="0" y="0" width="121" height="32" fill-opacity="0"/></g></g><g><g><rect fill="rgb(0,0,0)" stroke="none" x="0" y="0" width="121" height="18" fill-opacity="0"/></g></g><g><g><rect fill="rgb(0,0,0)" stroke="none" x="41.0625" y="0" width="39" height="17" fill-opacity="0"/></g></g><g><g><rect fill="rgb(0,0,0)" stroke="none" x="41.0625" y="0" width="39" height="17" fill-opacity="0"/></g><text fill="rgb(0, 0, 0)" stroke="none" font-family="Arial" font-size="16px" font-style="normal" font-weight="normal" text-decoration="" line-height="18.5px" x="41.0625" y="14">Type</text></g><g><g><rect fill="rgb(0,0,0)" stroke="none" x="0" y="18" width="121" height="14" fill-opacity="0"/></g></g><g><g><rect fill="rgb(0,0,0)" stroke="none" x="44.28125" y="18" width="33" height="14" fill-opacity="0"/></g></g><g><g><rect fill="rgb(0,0,0)" stroke="none" x="44.28125" y="18" width="33" height="14" fill-opacity="0"/></g><text fill="rgb(0, 0, 0)" stroke="none" font-family="Arial" font-size="12px" font-style="normal" font-weight="normal" text-decoration="" line-height="14px" x="44.28125" y="29">[</text><text fill="rgb(0, 0, 0)" stroke="none" font-family="Arial" font-size="12px" font-style="normal" font-weight="normal" text-decoration="" line-height="14px" x="47.609375" y="29">Type</text><text fill="rgb(0, 0, 0)" stroke="none" font-family="Arial" font-size="12px" font-style="normal" font-weight="normal" text-decoration="" line-height="14px" x="73.625" y="29">]</text></g></g></g></svg>