<svg version="1.1" xmlns="http://www.w3.org/2000/svg" xmlns:xlink="http://www.w3.org/1999/xlink" width="664.6117647058821" height="243"><style xmlns="http://www.w3.org/1999/xhtml"></style><defs/><g transform="translate(0,0)"><g><rect fill="#FFFFFF" stroke="none" x="0" y="0" width="664.6117647058821" height="243"/></g><g transform="translate(0,0) matrix(1,0,0,1,30,30)"><g><g transform="translate(0,0) scale(6.09,0.6)"><g><path fill="#ff9900" stroke="none" d="M 0 0 L 100 0 Q 100 0 100 0 L 100 100 Q 100 100 100 100 L 0 100 Q 0 100 0 100 L 0 0 Q 0 0 0 0 Z"/><g transform="scale(0.16420361247947454,1.6666666666666667)"><path fill="none" stroke="none" d="M 0 0 L 609 0 Q 609 0 609 0 L 609 60 Q 609 60 609 60 L 0 60 Q 0 60 0 60 L 0 0 Q 0 0 0 0 Z"/><path fill="none" stroke="#ffffff" d="M 0 0 M 0 0 L 609 0 Q 609 0 609 0 L 609 60 Q 609 60 609 60 L 0 60 Q 0 60 0 60 L 0 0 Q 0 0 0 0 Z" stroke-miterlimit="10" stroke-width="2"/></g></g></g></g></g><g transform="matrix(1,0,0,1,40,42)"><g><g><rect fill="rgb(0,0,0)" stroke="none" x="0" y="0" width="589" height="36" fill-opacity="0"/></g></g><g><g><rect fill="rgb(0,0,0)" stroke="none" x="0" y="0" width="589" height="36" fill-opacity="0"/></g></g><g><g><rect fill="rgb(0,0,0)" stroke="none" x="223.609375" y="0" width="142" height="35" fill-opacity="0"/></g></g><g><g><rect fill="rgb(0,0,0)" stroke="none" x="223.609375" y="0" width="142" height="35" fill-opacity="0"/></g><text fill="rgb(0, 0, 0)" stroke="none" font-family="Arial" font-size="16px" font-style="normal" font-weight="normal" text-decoration="" line-height="18.5px" x="223.609375" y="14">WebSocket</text><text fill="rgb(0, 0, 0)" stroke="none" font-family="Arial" font-size="16px" font-style="normal" font-weight="normal" text-decoration="" line-height="18.5px" x="305.125" y="14">-</text><text fill="rgb(0, 0, 0)" stroke="none" font-family="Arial" font-size="16px" font-style="normal" font-weight="normal" text-decoration="" line-height="18.5px" x="310.453125" y="14">Framed</text></g><g><g/></g><g><g><rect fill="rgb(0,0,0)" stroke="none" x="242.25" y="21" width="105" height="14" fill-opacity="0"/></g><text fill="rgb(0, 0, 0)" stroke="none" font-family="Arial" font-size="12px" font-style="normal" font-weight="normal" text-decoration="" line-height="14px" x="242.25" y="32">[</text><text fill="rgb(0, 0, 0)" stroke="none" font-family="Arial" font-size="12px" font-style="normal" font-weight="normal" text-decoration="" line-height="14px" x="245.578125" y="32">websocket</text><text fill="rgb(0, 0, 0)" stroke="none" font-family="Arial" font-size="12px" font-style="normal" font-weight="normal" text-decoration="" line-height="14px" x="302.265625" y="32">-</text><text fill="rgb(0, 0, 0)" stroke="none" font-family="Arial" font-size="12px" font-style="normal" font-weight="normal" text-decoration="" line-height="14px" x="306.265625" y="32">framed</text><text fill="rgb(0, 0, 0)" stroke="none" font-family="Arial" font-size="12px" font-style="normal" font-weight="normal" text-decoration="" line-height="14px" x="343.609375" y="32">]</text></g></g><g transform="translate(0,0) matrix(1,0,0,1,30,113)"><g><g transform="translate(0,0) scale(6.09,1.1)"><g><path fill="#ffffff" stroke="none" d="M 0 0 L 100 0 Q 100 0 100 0 L 100 100 Q 100 100 100 100 L 0 100 Q 0 100 0 100 L 0 0 Q 0 0 0 0 Z"/><g transform="scale(0.16420361247947454,0.9090909090909091)"><path fill="none" stroke="none" d="M 0 0 L 609 0 Q 609 0 609 0 L 609 110.00000000000001 Q 609 110.00000000000001 609 110.00000000000001 L 0 110.00000000000001 Q 0 110.00000000000001 0 110.00000000000001 L 0 0 Q 0 0 0 0 Z"/><path fill="none" stroke="#000000" d="M 0 0 M 0 0 L 609 0 Q 609 0 609 0 L 609 110.00000000000001 Q 609 110.00000000000001 609 110.00000000000001 L 0 110.00000000000001 Q 0 110.00000000000001 0 110.00000000000001 L 0 0 Q 0 0 0 0 Z" stroke-miterlimit="10" stroke-width="2"/></g></g></g></g></g><g transform="translate(0,0) matrix(1,0,0,1,39,128)"><g><g transform="translate(0,0) scale(1.4,0.8)"><g><path fill="#ff9900" stroke="none" d="M 0 0 L 100 0 Q 100 0 100 0 L 100 100 Q 100 100 100 100 L 0 100 Q 0 100 0 100 L 0 0 Q 0 0 0 0 Z"/><g transform="scale(0.7142857142857143,1.25)"><path fill="none" stroke="none" d="M 0 0 L 140 0 Q 140 0 140 0 L 140 80 Q 140 80 140 80 L 0 80 Q 0 80 0 80 L 0 0 Q 0 0 0 0 Z"/><path fill="none" stroke="#e69138" d="M 0 0 M 0 0 L 140 0 Q 140 0 140 0 L 140 80 Q 140 80 140 80 L 0 80 Q 0 80 0 80 L 0 0 Q 0 0 0 0 Z" stroke-miterlimit="10" stroke-width="2"/></g></g></g></g></g><g transform="matrix(1,0,0,1,49,152)"><g><g><rect fill="rgb(0,0,0)" stroke="none" x="0" y="0" width="121" height="32" fill-opacity="0"/></g></g><g><g><rect fill="rgb(0,0,0)" stroke="none" x="0" y="0" width="121" height="18" fill-opacity="0"/></g></g><g><g><rect fill="rgb(0,0,0)" stroke="none" x="33.0625" y="0" width="55" height="17" fill-opacity="0"/></g></g><g><g><rect fill="rgb(0,0,0)" stroke="none" x="33.0625" y="0" width="55" height="17" fill-opacity="0"/></g><text fill="rgb(0, 0, 0)" stroke="none" font-family="Arial" font-size="16px" font-style="normal" font-weight="normal" text-decoration="" line-height="18.5px" x="33.0625" y="14">Framed</text></g><g><g><rect fill="rgb(0,0,0)" stroke="none" x="0" y="18" width="121" height="14" fill-opacity="0"/></g></g><g><g><rect fill="rgb(0,0,0)" stroke="none" x="36.625" y="18" width="48" height="14" fill-opacity="0"/></g></g><g><g><rect fill="rgb(0,0,0)" stroke="none" x="36.625" y="18" width="48" height="14" fill-opacity="0"/></g><text fill="rgb(0, 0, 0)" stroke="none" font-family="Arial" font-size="12px" font-style="normal" font-weight="normal" text-decoration="" line-height="14px" x="36.625" y="29">[</text><text fill="rgb(0, 0, 0)" stroke="none" font-family="Arial" font-size="12px" font-style="normal" font-weight="normal" text-decoration="" line-height="14px" x="39.953125" y="29">Framed</text><text fill="rgb(0, 0, 0)" stroke="none" font-family="Arial" font-size="12px" font-style="normal" font-weight="normal" text-decoration="" line-height="14px" x="81.296875" y="29">]</text></g></g><g transform="translate(0,0) matrix(1,0,0,1,190,128)"><g><g transform="translate(0,0) scale(1.4,0.8)"><g><path fill="#e69138" stroke="none" d="M 0 0 L 100 0 Q 100 0 100 0 L 100 100 Q 100 100 100 100 L 0 100 Q 0 100 0 100 L 0 0 Q 0 0 0 0 Z"/><g transform="scale(0.7142857142857143,1.25)"><path fill="none" stroke="none" d="M 0 0 L 140 0 Q 140 0 140 0 L 140 80 Q 140 80 140 80 L 0 80 Q 0 80 0 80 L 0 0 Q 0 0 0 0 Z"/><path fill="none" stroke="#e69138" d="M 0 0 M 0 0 L 140 0 Q 140 0 140 0 L 140 80 Q 140 80 140 80 L 0 80 Q 0 80 0 80 L 0 0 Q 0 0 0 0 Z" stroke-miterlimit="10" stroke-width="2"/></g></g></g></g></g><g transform="matrix(1,0,0,1,200,152)"><g><g><rect fill="rgb(0,0,0)" stroke="none" x="0" y="0" width="121" height="32" fill-opacity="0"/></g></g><g><g><rect fill="rgb(0,0,0)" stroke="none" x="0" y="0" width="121" height="18" fill-opacity="0"/></g></g><g><g><rect fill="rgb(0,0,0)" stroke="none" x="25.5" y="0" width="70" height="17" fill-opacity="0"/></g></g><g><g><rect fill="rgb(0,0,0)" stroke="none" x="25.5" y="0" width="70" height="17" fill-opacity="0"/></g><text fill="rgb(0, 0, 0)" stroke="none" font-family="Arial" font-size="16px" font-style="normal" font-weight="normal" text-decoration="" line-height="18.5px" x="25.5" y="14">Converter</text></g><g><g><rect fill="rgb(0,0,0)" stroke="none" x="0" y="18" width="121" height="14" fill-opacity="0"/></g></g><g><g><rect fill="rgb(0,0,0)" stroke="none" x="36.28125" y="18" width="49" height="14" fill-opacity="0"/></g></g><g><g><rect fill="rgb(0,0,0)" stroke="none" x="36.28125" y="18" width="49" height="14" fill-opacity="0"/></g><text fill="rgb(0, 0, 0)" stroke="none" font-family="Arial" font-size="12px" font-style="normal" font-weight="normal" text-decoration="" line-height="14px" x="36.28125" y="29">[</text><text fill="rgb(0, 0, 0)" stroke="none" font-family="Arial" font-size="12px" font-style="normal" font-weight="normal" text-decoration="" line-height="14px" x="39.609375" y="29">Convert</text><text fill="rgb(0, 0, 0)" stroke="none" font-family="Arial" font-size="12px" font-style="normal" font-weight="normal" text-decoration="" line-height="14px" x="81.625" y="29">]</text></g></g><g transform="translate(0,0) matrix(1,0,0,1,340,128)"><g><g transform="translate(0,0) scale(1.4,0.8)"><g><path fill="#e69138" stroke="none" d="M 0 0 L 100 0 Q 100 0 100 0 L 100 100 Q 100 100 100 100 L 0 100 Q 0 100 0 100 L 0 0 Q 0 0 0 0 Z"/><g transform="scale(0.7142857142857143,1.25)"><path fill="none" stroke="none" d="M 0 0 L 140 0 Q 140 0 140 0 L 140 80 Q 140 80 140 80 L 0 80 Q 0 80 0 80 L 0 0 Q 0 0 0 0 Z"/><path fill="none" stroke="#e69138" d="M 0 0 M 0 0 L 140 0 Q 140 0 140 0 L 140 80 Q 140 80 140 80 L 0 80 Q 0 80 0 80 L 0 0 Q 0 0 0 0 Z" stroke-miterlimit="10" stroke-width="2"/></g></g></g></g></g><g transform="matrix(1,0,0,1,350,152)"><g><g><rect fill="rgb(0,0,0)" stroke="none" x="0" y="0" width="121" height="32" fill-opacity="0"/></g></g><g><g><rect fill="rgb(0,0,0)" stroke="none" x="0" y="0" width="121" height="18" fill-opacity="0"/></g></g><g><g><rect fill="rgb(0,0,0)" stroke="none" x="37.5" y="0" width="46" height="17" fill-opacity="0"/></g></g><g><g><rect fill="rgb(0,0,0)" stroke="none" x="37.5" y="0" width="46" height="17" fill-opacity="0"/></g><text fill="rgb(0, 0, 0)" stroke="none" font-family="Arial" font-size="16px" font-style="normal" font-weight="normal" text-decoration="" line-height="18.5px" x="37.5" y="14">Codec</text></g><g><g><rect fill="rgb(0,0,0)" stroke="none" x="0" y="18" width="121" height="14" fill-opacity="0"/></g></g><g><g><rect fill="rgb(0,0,0)" stroke="none" x="11.59375" y="18" width="98" height="14" fill-opacity="0"/></g></g><g><g><rect fill="rgb(0,0,0)" stroke="none" x="11.59375" y="18" width="98" height="14" fill-opacity="0"/></g><text fill="rgb(0, 0, 0)" stroke="none" font-family="Arial" font-size="12px" font-style="normal" font-weight="normal" text-decoration="" line-height="14px" x="11.59375" y="29">[</text><text fill="rgb(0, 0, 0)" stroke="none" font-family="Arial" font-size="12px" font-style="normal" font-weight="normal" text-decoration="" line-height="14px" x="14.921875" y="29">Coding</text><text fill="rgb(0, 0, 0)" stroke="none" font-family="Arial" font-size="12px" font-style="normal" font-weight="normal" text-decoration="" line-height="14px" x="52.953125" y="29">/</text><text fill="rgb(0, 0, 0)" stroke="none" font-family="Arial" font-size="12px" font-style="normal" font-weight="normal" text-decoration="" line-height="14px" x="56.28125" y="29">Encoding</text><text fill="rgb(0, 0, 0)" stroke="none" font-family="Arial" font-size="12px" font-style="normal" font-weight="normal" text-decoration="" line-height="14px" x="106.328125" y="29">]</text></g></g></g></svg>