<svg version="1.1" xmlns="http://www.w3.org/2000/svg" xmlns:xlink="http://www.w3.org/1999/xlink" width="925" height="1090"><style xmlns="http://www.w3.org/1999/xhtml"></style><defs/><g transform="translate(0,0)"><g><rect fill="#FFFFFF" stroke="none" x="0" y="0" width="925" height="1090"/></g><g transform="translate(0,0) matrix(1,0,0,1,80,100)"><g><g transform="translate(0,0) scale(5.8,4.4)"><g><path fill="#b6d7a8" stroke="none" d="M 0 0 L 100 0 Q 100 0 100 0 L 100 100 Q 100 100 100 100 L 0 100 Q 0 100 0 100 L 0 0 Q 0 0 0 0 Z"/><g transform="scale(0.1724137931034483,0.22727272727272727)"><path fill="none" stroke="none" d="M 0 0 L 580 0 Q 580 0 580 0 L 580 440.00000000000006 Q 580 440.00000000000006 580 440.00000000000006 L 0 440.00000000000006 Q 0 440.00000000000006 0 440.00000000000006 L 0 0 Q 0 0 0 0 Z"/><path fill="none" stroke="rgb(0,0,0)" d="M 0 0 M 0 0 L 580 0 Q 580 0 580 0 L 580 440.00000000000006 Q 580 440.00000000000006 580 440.00000000000006 L 0 440.00000000000006 Q 0 440.00000000000006 0 440.00000000000006 L 0 0 Q 0 0 0 0 Z" stroke-opacity="0" stroke-miterlimit="10" stroke-width="0"/></g></g></g></g></g><g transform="translate(0,0) matrix(1,0,0,1,120,270)"><g><g transform="translate(0,0) scale(1.2000000000000002,0.7)"><g><g transform="scale(0.8333333333333333,1.4285714285714286)"><path fill="#3c78d8" stroke="rgb(0,0,0)" d="M 0 0 L 110.00000000000003 0 L 120.00000000000001 10 L 110.00000000000003 10 L 110.00000000000003 0 L 120.00000000000001 10 L 120.00000000000001 70 L 0 70 Z" stroke-opacity="0" stroke-linejoin="round" stroke-miterlimit="10" stroke-width="0"/></g></g></g></g></g><g transform="matrix(1,0,0,1,130,296)"><g><g><rect fill="rgb(0,0,0)" stroke="none" x="0" y="0" width="102" height="18" fill-opacity="0"/></g></g><g><g><rect fill="rgb(0,0,0)" stroke="none" x="0" y="0" width="102" height="18" fill-opacity="0"/></g></g><g><g><rect fill="rgb(0,0,0)" stroke="none" x="19.203125" y="0" width="63" height="17" fill-opacity="0"/></g></g><g><g><rect fill="rgb(0,0,0)" stroke="none" x="19.203125" y="0" width="63" height="17" fill-opacity="0"/></g><text fill="rgb(0, 0, 0)" stroke="none" font-family="Arial" font-size="16px" font-style="normal" font-weight="normal" text-decoration="" line-height="18.5px" x="19.203125" y="14">Resolver</text></g></g><g transform="translate(0,0) matrix(1,0,0,1,120,360)"><g><g transform="translate(0,0) scale(1.2000000000000002,0.7)"><g><g transform="scale(0.8333333333333333,1.4285714285714286)"><path fill="#3c78d8" stroke="rgb(0,0,0)" d="M 0 0 L 110.00000000000003 0 L 120.00000000000001 10 L 110.00000000000003 10 L 110.00000000000003 0 L 120.00000000000001 10 L 120.00000000000001 70 L 0 70 Z" stroke-opacity="0" stroke-linejoin="round" stroke-miterlimit="10" stroke-width="0"/></g></g></g></g></g><g transform="matrix(1,0,0,1,130,386)"><g><g><rect fill="rgb(0,0,0)" stroke="none" x="0" y="0" width="102" height="18" fill-opacity="0"/></g></g><g><g><rect fill="rgb(0,0,0)" stroke="none" x="0" y="0" width="102" height="18" fill-opacity="0"/></g></g><g><g><rect fill="rgb(0,0,0)" stroke="none" x="21.421875" y="0" width="59" height="17" fill-opacity="0"/></g></g><g><g><rect fill="rgb(0,0,0)" stroke="none" x="21.421875" y="0" width="59" height="17" fill-opacity="0"/></g><text fill="rgb(0, 0, 0)" stroke="none" font-family="Arial" font-size="16px" font-style="normal" font-weight="normal" text-decoration="" line-height="18.5px" x="21.421875" y="14">Schema</text></g></g><g transform="translate(0,0) matrix(1,0,0,1,120,450)"><g><g transform="translate(0,0) scale(1.2000000000000002,0.7)"><g><g transform="scale(0.8333333333333333,1.4285714285714286)"><path fill="#6aa84f" stroke="rgb(0,0,0)" d="M 0 0 L 110.00000000000003 0 L 120.00000000000001 10 L 110.00000000000003 10 L 110.00000000000003 0 L 120.00000000000001 10 L 120.00000000000001 70 L 0 70 Z" stroke-opacity="0" stroke-linejoin="round" stroke-miterlimit="10" stroke-width="0"/></g></g></g></g></g><g transform="matrix(1,0,0,1,130,476)"><g><g><rect fill="rgb(0,0,0)" stroke="none" x="0" y="0" width="102" height="18" fill-opacity="0"/></g></g><g><g><rect fill="rgb(0,0,0)" stroke="none" x="0" y="0" width="102" height="18" fill-opacity="0"/></g></g><g><g><rect fill="rgb(0,0,0)" stroke="none" x="3.1875" y="0" width="95" height="17" fill-opacity="0"/></g></g><g><g><rect fill="rgb(0,0,0)" stroke="none" x="3.1875" y="0" width="95" height="17" fill-opacity="0"/></g><text fill="rgb(0, 0, 0)" stroke="none" font-family="Arial" font-size="16px" font-style="normal" font-weight="normal" text-decoration="" line-height="18.5px" x="3.1875" y="14">Configuration</text></g></g><g transform="translate(0,0) matrix(1,0,0,1,120,130)"><g><g transform="translate(0,0) scale(5.1,0.6)"><g><path fill="#6aa84f" stroke="none" d="M 0 0 L 100 0 Q 100 0 100 0 L 100 100 Q 100 100 100 100 L 0 100 Q 0 100 0 100 L 0 0 Q 0 0 0 0 Z"/><g transform="scale(0.19607843137254904,1.6666666666666667)"><path fill="none" stroke="none" d="M 0 0 L 509.99999999999994 0 Q 509.99999999999994 0 509.99999999999994 0 L 509.99999999999994 60 Q 509.99999999999994 60 509.99999999999994 60 L 0 60 Q 0 60 0 60 L 0 0 Q 0 0 0 0 Z"/><path fill="none" stroke="rgb(0,0,0)" d="M 0 0 M 0 0 L 509.99999999999994 0 Q 509.99999999999994 0 509.99999999999994 0 L 509.99999999999994 60 Q 509.99999999999994 60 509.99999999999994 60 L 0 60 Q 0 60 0 60 L 0 0 Q 0 0 0 0 Z" stroke-opacity="0" stroke-miterlimit="10" stroke-width="0"/></g></g></g></g></g><g transform="matrix(1,0,0,1,131,151)"><g><g><rect fill="rgb(0,0,0)" stroke="none" x="0" y="0" width="489" height="18" fill-opacity="0"/></g></g><g><g><rect fill="rgb(0,0,0)" stroke="none" x="0" y="0" width="489" height="18" fill-opacity="0"/></g></g><g><g><rect fill="rgb(0,0,0)" stroke="none" x="93.5625" y="0" width="302" height="17" fill-opacity="0"/></g></g><g><g><rect fill="rgb(0,0,0)" stroke="none" x="93.5625" y="0" width="302" height="17" fill-opacity="0"/></g><text fill="rgb(0, 0, 0)" stroke="none" font-family="Arial" font-size="16px" font-style="normal" font-weight="normal" text-decoration="" line-height="18.5px" x="93.5625" y="14">GraphQL</text><text fill="rgb(0, 0, 0)" stroke="none" font-family="Arial" font-size="16px" font-style="normal" font-weight="normal" text-decoration="" line-height="18.5px" x="159.375" y="14">-</text><text fill="rgb(0, 0, 0)" stroke="none" font-family="Arial" font-size="16px" font-style="normal" font-weight="normal" text-decoration="" line-height="18.5px" x="164.703125" y="14">IO</text><text fill="rgb(0, 0, 0)" stroke="none" font-family="Arial" font-size="16px" font-style="normal" font-weight="normal" text-decoration="" line-height="18.5px" x="181.59375" y="14">-</text><text fill="rgb(0, 0, 0)" stroke="none" font-family="Arial" font-size="16px" font-style="normal" font-weight="normal" text-decoration="" line-height="18.5px" x="186.921875" y="14">Server</text><text fill="rgb(0, 0, 0)" stroke="none" font-family="Arial" font-size="16px" font-style="normal" font-weight="normal" text-decoration="" line-height="18.5px" x="238.484375" y="14">as</text><text fill="rgb(0, 0, 0)" stroke="none" font-family="Arial" font-size="16px" font-style="normal" font-weight="normal" text-decoration="" line-height="18.5px" x="259.828125" y="14">Spring</text><text fill="rgb(0, 0, 0)" stroke="none" font-family="Arial" font-size="16px" font-style="normal" font-weight="normal" text-decoration="" line-height="18.5px" x="310.53125" y="14">Boot</text><text fill="rgb(0, 0, 0)" stroke="none" font-family="Arial" font-size="16px" font-style="normal" font-weight="normal" text-decoration="" line-height="18.5px" x="347.890625" y="14">Starter</text></g></g><g transform="translate(0,0) matrix(1,0,0,1,330,190)"><g><g transform="translate(0,0) scale(3,0.6)"><g><path fill="#ff9900" stroke="none" d="M 0 0 L 100 0 Q 100 0 100 0 L 100 100 Q 100 100 100 100 L 0 100 Q 0 100 0 100 L 0 0 Q 0 0 0 0 Z"/><g transform="scale(0.3333333333333333,1.6666666666666667)"><path fill="none" stroke="none" d="M 0 0 L 300 0 Q 300 0 300 0 L 300 60 Q 300 60 300 60 L 0 60 Q 0 60 0 60 L 0 0 Q 0 0 0 0 Z"/><path fill="none" stroke="rgb(0,0,0)" d="M 0 0 M 0 0 L 300 0 Q 300 0 300 0 L 300 60 Q 300 60 300 60 L 0 60 Q 0 60 0 60 L 0 0 Q 0 0 0 0 Z" stroke-opacity="0" stroke-miterlimit="10" stroke-width="0"/></g></g></g></g></g><g transform="matrix(1,0,0,1,340,211)"><g><g><rect fill="rgb(0,0,0)" stroke="none" x="0" y="0" width="282" height="18" fill-opacity="0"/></g></g><g><g><rect fill="rgb(0,0,0)" stroke="none" x="0" y="0" width="282" height="18" fill-opacity="0"/></g></g><g><g><rect fill="rgb(0,0,0)" stroke="none" x="46.015625" y="0" width="190" height="17" fill-opacity="0"/></g></g><g><g><rect fill="rgb(0,0,0)" stroke="none" x="46.015625" y="0" width="190" height="17" fill-opacity="0"/></g><text fill="rgb(0, 0, 0)" stroke="none" font-family="Arial" font-size="16px" font-style="normal" font-weight="normal" text-decoration="" line-height="18.5px" x="46.015625" y="14">GraphQL</text><text fill="rgb(0, 0, 0)" stroke="none" font-family="Arial" font-size="16px" font-style="normal" font-weight="normal" text-decoration="" line-height="18.5px" x="115.671875" y="14">IO</text><text fill="rgb(0, 0, 0)" stroke="none" font-family="Arial" font-size="16px" font-style="normal" font-weight="normal" text-decoration="" line-height="18.5px" x="137.015625" y="14">Java</text><text fill="rgb(0, 0, 0)" stroke="none" font-family="Arial" font-size="16px" font-style="normal" font-weight="normal" text-decoration="" line-height="18.5px" x="175.25" y="14">Modules</text></g></g><g transform="matrix(1,0,0,1,242,50)"><g><g><rect fill="rgb(0,0,0)" stroke="none" x="0" y="0" width="227" height="40" fill-opacity="0"/></g></g><g><g><rect fill="rgb(0,0,0)" stroke="none" x="0" y="0" width="227" height="20" fill-opacity="0"/></g></g><g><g><rect fill="rgb(0,0,0)" stroke="none" x="35.796875" y="5" width="155" height="14" fill-opacity="0"/></g></g><g><g><rect fill="rgb(0,0,0)" stroke="none" x="35.796875" y="0" width="155" height="20" fill-opacity="0"/></g><text fill="rgb(0, 0, 0)" stroke="none" font-family="Arial" font-size="18px" font-style="normal" font-weight="normal" text-decoration="" line-height="20.5px" x="35.796875" y="16">GraphQL</text><text fill="rgb(0, 0, 0)" stroke="none" font-family="Arial" font-size="18px" font-style="normal" font-weight="normal" text-decoration="" line-height="20.5px" x="114.15625" y="16">IO</text><text fill="rgb(0, 0, 0)" stroke="none" font-family="Arial" font-size="18px" font-style="normal" font-weight="normal" text-decoration="" line-height="20.5px" x="138.171875" y="16">Server</text></g><g><g><rect fill="rgb(0,0,0)" stroke="none" x="0" y="20" width="227" height="20" fill-opacity="0"/></g></g><g><g><rect fill="rgb(0,0,0)" stroke="none" x="14.296875" y="20" width="199" height="20" fill-opacity="0"/></g></g><g><g><rect fill="rgb(0,0,0)" stroke="none" x="14.296875" y="25" width="199" height="14" fill-opacity="0"/></g></g><g><g><rect fill="rgb(0,0,0)" stroke="none" x="14.296875" y="20" width="195" height="20" fill-opacity="0"/></g><text fill="rgb(0, 0, 0)" stroke="none" font-family="Arial" font-size="18px" font-style="normal" font-weight="normal" text-decoration="" line-height="20.5px" x="121.28125" y="36">Application</text></g><g><g><rect fill="rgb(0,0,0)" stroke="none" x="14.296875" y="20" width="103" height="20" fill-opacity="0"/></g><text fill="rgb(0, 0, 0)" stroke="none" font-family="Arial" font-size="18px" font-style="normal" font-weight="700" text-decoration="" line-height="20.5px" x="14.296875" y="36">Spring</text><text fill="rgb(0, 0, 0)" stroke="none" font-family="Arial" font-size="18px" font-style="normal" font-weight="700" text-decoration="" line-height="20.5px" x="76.28125" y="36">Boot</text></g></g><g transform="translate(0,0) matrix(1,0,0,1,330,270)"><g><g transform="translate(0,0) scale(3,2.5)"><g><path fill="none" stroke="none" d="M 10 0 L 90 0 Q 100 0 100 10 L 100 90 Q 100 100 90 100 L 10 100 Q 0 100 0 90 L 0 10 Q 0 0 10 0 Z"/><g transform="scale(0.3333333333333333,0.4)"><path fill="#b7b7b7" stroke="none" d="M 10 0 L 290 0 Q 300 0 300 10 L 300 240 Q 300 250 290 250 L 10 250 Q 0 250 0 240 L 0 10 Q 0 0 10 0 Z"/><path fill="none" stroke="rgb(0,0,0)" d="M 10 0 M 10 0 L 290 0 Q 300 0 300 10 L 300 240 Q 300 250 290 250 L 10 250 Q 0 250 0 240 L 0 10 Q 0 0 10 0 Z" stroke-opacity="0" stroke-miterlimit="10" stroke-width="0"/></g></g></g></g></g><g transform="matrix(1,0,0,1,343,386)"><g><g><rect fill="rgb(0,0,0)" stroke="none" x="0" y="0" width="276" height="18" fill-opacity="0"/></g></g><g><g><rect fill="rgb(0,0,0)" stroke="none" x="0" y="0" width="276" height="18" fill-opacity="0"/></g></g><g><g><rect fill="rgb(0,0,0)" stroke="none" x="110.3125" y="0" width="55" height="17" fill-opacity="0"/></g></g><g><g><rect fill="rgb(0,0,0)" stroke="none" x="110.3125" y="0" width="55" height="17" fill-opacity="0"/></g><text fill="rgb(0, 0, 0)" stroke="none" font-family="Arial" font-size="16px" font-style="normal" font-weight="normal" text-decoration="" line-height="18.5px" x="110.3125" y="14">Domain</text></g></g><g transform="translate(0,0) matrix(1,0,0,1,700,105)"><g><g transform="translate(0,0) scale(0.4,0.15)"><g><path fill="#b6d7a8" stroke="none" d="M 0 0 L 100 0 Q 100 0 100 0 L 100 100 Q 100 100 100 100 L 0 100 Q 0 100 0 100 L 0 0 Q 0 0 0 0 Z"/><g transform="scale(2.5,6.666666666666667)"><path fill="none" stroke="none" d="M 0 0 L 40 0 Q 40 0 40 0 L 40 15 Q 40 15 40 15 L 0 15 Q 0 15 0 15 L 0 0 Q 0 0 0 0 Z"/><path fill="none" stroke="rgb(0,0,0)" d="M 0 0 M 0 0 L 40 0 Q 40 0 40 0 L 40 15 Q 40 15 40 15 L 0 15 Q 0 15 0 15 L 0 0 Q 0 0 0 0 Z" stroke-opacity="0" stroke-miterlimit="10" stroke-width="0"/></g></g></g></g></g><g transform="matrix(1,0,0,1,702,105)"><g><g><rect fill="rgb(0,0,0)" stroke="none" x="0" y="0" width="147" height="14" fill-opacity="0"/></g></g><g><g><rect fill="rgb(0,0,0)" stroke="none" x="0" y="0" width="147" height="14" fill-opacity="0"/></g></g><g><g><rect fill="rgb(0,0,0)" stroke="none" x="56.15625" y="0" width="35" height="14" fill-opacity="0"/></g></g><g><g><rect fill="rgb(0,0,0)" stroke="none" x="56.15625" y="0" width="35" height="14" fill-opacity="0"/></g><text fill="rgb(0, 0, 0)" stroke="none" font-family="Arial" font-size="12px" font-style="normal" font-weight="normal" text-decoration="" line-height="14px" x="56.15625" y="11">Spring</text></g></g><g transform="translate(0,0) matrix(1,0,0,1,700,125)"><g><g transform="translate(0,0) scale(0.4,0.15)"><g><path fill="#ff9900" stroke="none" d="M 0 0 L 100 0 Q 100 0 100 0 L 100 100 Q 100 100 100 100 L 0 100 Q 0 100 0 100 L 0 0 Q 0 0 0 0 Z"/><g transform="scale(2.5,6.666666666666667)"><path fill="none" stroke="none" d="M 0 0 L 40 0 Q 40 0 40 0 L 40 15 Q 40 15 40 15 L 0 15 Q 0 15 0 15 L 0 0 Q 0 0 0 0 Z"/><path fill="none" stroke="rgb(0,0,0)" d="M 0 0 M 0 0 L 40 0 Q 40 0 40 0 L 40 15 Q 40 15 40 15 L 0 15 Q 0 15 0 15 L 0 0 Q 0 0 0 0 Z" stroke-opacity="0" stroke-miterlimit="10" stroke-width="0"/></g></g></g></g></g><g transform="translate(0,0) matrix(1,0,0,1,700,145)"><g><g transform="translate(0,0) scale(0.4,0.15)"><g><path fill="#4a86e8" stroke="none" d="M 0 0 L 100 0 Q 100 0 100 0 L 100 100 Q 100 100 100 100 L 0 100 Q 0 100 0 100 L 0 0 Q 0 0 0 0 Z"/><g transform="scale(2.5,6.666666666666667)"><path fill="none" stroke="none" d="M 0 0 L 40 0 Q 40 0 40 0 L 40 15 Q 40 15 40 15 L 0 15 Q 0 15 0 15 L 0 0 Q 0 0 0 0 Z"/><path fill="none" stroke="rgb(0,0,0)" d="M 0 0 M 0 0 L 40 0 Q 40 0 40 0 L 40 15 Q 40 15 40 15 L 0 15 Q 0 15 0 15 L 0 0 Q 0 0 0 0 Z" stroke-opacity="0" stroke-miterlimit="10" stroke-width="0"/></g></g></g></g></g><g transform="matrix(1,0,0,1,759,125)"><g><g><rect fill="rgb(0,0,0)" stroke="none" x="0" y="0" width="147" height="14" fill-opacity="0"/></g></g><g><g><rect fill="rgb(0,0,0)" stroke="none" x="0" y="0" width="147" height="14" fill-opacity="0"/></g></g><g><g><rect fill="rgb(0,0,0)" stroke="none" x="1.359375" y="0" width="145" height="14" fill-opacity="0"/></g></g><g><g><rect fill="rgb(0,0,0)" stroke="none" x="1.359375" y="0" width="145" height="14" fill-opacity="0"/></g><text fill="rgb(0, 0, 0)" stroke="none" font-family="Arial" font-size="12px" font-style="normal" font-weight="normal" text-decoration="" line-height="14px" x="1.359375" y="11">New</text><text fill="rgb(0, 0, 0)" stroke="none" font-family="Arial" font-size="12px" font-style="normal" font-weight="normal" text-decoration="" line-height="14px" x="28.6875" y="11">GraphQL</text><text fill="rgb(0, 0, 0)" stroke="none" font-family="Arial" font-size="12px" font-style="normal" font-weight="normal" text-decoration="" line-height="14px" x="80.9375" y="11">IO</text><text fill="rgb(0, 0, 0)" stroke="none" font-family="Arial" font-size="12px" font-style="normal" font-weight="normal" text-decoration="" line-height="14px" x="96.9375" y="11">Modules</text></g></g><g transform="matrix(1,0,0,1,722,145)"><g><g><rect fill="rgb(0,0,0)" stroke="none" x="0" y="0" width="147" height="14" fill-opacity="0"/></g></g><g><g><rect fill="rgb(0,0,0)" stroke="none" x="0" y="0" width="147" height="14" fill-opacity="0"/></g></g><g><g><rect fill="rgb(0,0,0)" stroke="none" x="36.140625" y="0" width="75" height="14" fill-opacity="0"/></g></g><g><g><rect fill="rgb(0,0,0)" stroke="none" x="36.140625" y="0" width="75" height="14" fill-opacity="0"/></g><text fill="rgb(0, 0, 0)" stroke="none" font-family="Arial" font-size="12px" font-style="normal" font-weight="normal" text-decoration="" line-height="14px" x="36.140625" y="11">Graphql</text><text fill="rgb(0, 0, 0)" stroke="none" font-family="Arial" font-size="12px" font-style="normal" font-weight="normal" text-decoration="" line-height="14px" x="82.15625" y="11">Java</text></g></g><g transform="translate(0,0) matrix(1,0,0,1,80,630)"><g transform="translate(4,4) scale(1,1)"><g><g transform="translate(0,0) scale(5.8,4.4)"><g><path fill="#000000" stroke="none" d="M 0 0 L 100 0 Q 100 0 100 0 L 100 100 Q 100 100 100 100 L 0 100 Q 0 100 0 100 L 0 0 Q 0 0 0 0 Z" opacity="0.294117647"/><g transform="scale(0.1724137931034483,0.22727272727272727)"><path fill="none" stroke="none" d="M 0 0 L 580 0 Q 580 0 580 0 L 580 440.00000000000006 Q 580 440.00000000000006 580 440.00000000000006 L 0 440.00000000000006 Q 0 440.00000000000006 0 440.00000000000006 L 0 0 Q 0 0 0 0 Z"/><path fill="none" stroke="rgb(0,0,0)" d="M 0 0 M 0 0 L 580 0 Q 580 0 580 0 L 580 440.00000000000006 Q 580 440.00000000000006 580 440.00000000000006 L 0 440.00000000000006 Q 0 440.00000000000006 0 440.00000000000006 L 0 0 Q 0 0 0 0 Z" stroke-opacity="0" stroke-miterlimit="10" stroke-width="0" opacity="0.294117647"/></g></g></g></g></g><g><g transform="translate(0,0) scale(5.8,4.4)"><g><path fill="#ff0000" stroke="none" d="M 0 0 L 100 0 Q 100 0 100 0 L 100 100 Q 100 100 100 100 L 0 100 Q 0 100 0 100 L 0 0 Q 0 0 0 0 Z" opacity="0.36"/><g transform="scale(0.1724137931034483,0.22727272727272727)"><path fill="none" stroke="none" d="M 0 0 L 580 0 Q 580 0 580 0 L 580 440.00000000000006 Q 580 440.00000000000006 580 440.00000000000006 L 0 440.00000000000006 Q 0 440.00000000000006 0 440.00000000000006 L 0 0 Q 0 0 0 0 Z"/><path fill="none" stroke="rgb(0,0,0)" d="M 0 0 M 0 0 L 580 0 Q 580 0 580 0 L 580 440.00000000000006 Q 580 440.00000000000006 580 440.00000000000006 L 0 440.00000000000006 Q 0 440.00000000000006 0 440.00000000000006 L 0 0 Q 0 0 0 0 Z" stroke-opacity="0" stroke-miterlimit="10" stroke-width="0" opacity="0.36"/></g></g></g></g></g><g transform="translate(0,0) matrix(1,0,0,1,120,800)"><g><g transform="translate(0,0) scale(1.2000000000000002,0.7)"><g><g transform="scale(0.8333333333333333,1.4285714285714286)"><path fill="#3c78d8" stroke="rgb(0,0,0)" d="M 0 0 L 110.00000000000003 0 L 120.00000000000001 10 L 110.00000000000003 10 L 110.00000000000003 0 L 120.00000000000001 10 L 120.00000000000001 70 L 0 70 Z" stroke-opacity="0" stroke-linejoin="round" stroke-miterlimit="10" stroke-width="0"/></g></g></g></g></g><g transform="matrix(1,0,0,1,130,826)"><g><g><rect fill="rgb(0,0,0)" stroke="none" x="0" y="0" width="102" height="18" fill-opacity="0"/></g></g><g><g><rect fill="rgb(0,0,0)" stroke="none" x="0" y="0" width="102" height="18" fill-opacity="0"/></g></g><g><g><rect fill="rgb(0,0,0)" stroke="none" x="19.203125" y="0" width="63" height="17" fill-opacity="0"/></g></g><g><g><rect fill="rgb(0,0,0)" stroke="none" x="19.203125" y="0" width="63" height="17" fill-opacity="0"/></g><text fill="rgb(0, 0, 0)" stroke="none" font-family="Arial" font-size="16px" font-style="normal" font-weight="normal" text-decoration="" line-height="18.5px" x="19.203125" y="14">Resolver</text></g></g><g transform="translate(0,0) matrix(1,0,0,1,120,890)"><g><g transform="translate(0,0) scale(1.2000000000000002,0.7)"><g><g transform="scale(0.8333333333333333,1.4285714285714286)"><path fill="#3c78d8" stroke="rgb(0,0,0)" d="M 0 0 L 110.00000000000003 0 L 120.00000000000001 10 L 110.00000000000003 10 L 110.00000000000003 0 L 120.00000000000001 10 L 120.00000000000001 70 L 0 70 Z" stroke-opacity="0" stroke-linejoin="round" stroke-miterlimit="10" stroke-width="0"/></g></g></g></g></g><g transform="matrix(1,0,0,1,130,916)"><g><g><rect fill="rgb(0,0,0)" stroke="none" x="0" y="0" width="102" height="18" fill-opacity="0"/></g></g><g><g><rect fill="rgb(0,0,0)" stroke="none" x="0" y="0" width="102" height="18" fill-opacity="0"/></g></g><g><g><rect fill="rgb(0,0,0)" stroke="none" x="21.421875" y="0" width="59" height="17" fill-opacity="0"/></g></g><g><g><rect fill="rgb(0,0,0)" stroke="none" x="21.421875" y="0" width="59" height="17" fill-opacity="0"/></g><text fill="rgb(0, 0, 0)" stroke="none" font-family="Arial" font-size="16px" font-style="normal" font-weight="normal" text-decoration="" line-height="18.5px" x="21.421875" y="14">Schema</text></g></g><g transform="translate(0,0) matrix(1,0,0,1,330,720)"><g><g transform="translate(0,0) scale(3,0.6)"><g><path fill="#ff9900" stroke="none" d="M 0 0 L 100 0 Q 100 0 100 0 L 100 100 Q 100 100 100 100 L 0 100 Q 0 100 0 100 L 0 0 Q 0 0 0 0 Z"/><g transform="scale(0.3333333333333333,1.6666666666666667)"><path fill="none" stroke="none" d="M 0 0 L 300 0 Q 300 0 300 0 L 300 60 Q 300 60 300 60 L 0 60 Q 0 60 0 60 L 0 0 Q 0 0 0 0 Z"/><path fill="none" stroke="rgb(0,0,0)" d="M 0 0 M 0 0 L 300 0 Q 300 0 300 0 L 300 60 Q 300 60 300 60 L 0 60 Q 0 60 0 60 L 0 0 Q 0 0 0 0 Z" stroke-opacity="0" stroke-miterlimit="10" stroke-width="0"/></g></g></g></g></g><g transform="matrix(1,0,0,1,340,741)"><g><g><rect fill="rgb(0,0,0)" stroke="none" x="0" y="0" width="282" height="18" fill-opacity="0"/></g></g><g><g><rect fill="rgb(0,0,0)" stroke="none" x="0" y="0" width="282" height="18" fill-opacity="0"/></g></g><g><g><rect fill="rgb(0,0,0)" stroke="none" x="46.015625" y="0" width="190" height="17" fill-opacity="0"/></g></g><g><g><rect fill="rgb(0,0,0)" stroke="none" x="46.015625" y="0" width="190" height="17" fill-opacity="0"/></g><text fill="rgb(0, 0, 0)" stroke="none" font-family="Arial" font-size="16px" font-style="normal" font-weight="normal" text-decoration="" line-height="18.5px" x="46.015625" y="14">GraphQL</text><text fill="rgb(0, 0, 0)" stroke="none" font-family="Arial" font-size="16px" font-style="normal" font-weight="normal" text-decoration="" line-height="18.5px" x="115.671875" y="14">IO</text><text fill="rgb(0, 0, 0)" stroke="none" font-family="Arial" font-size="16px" font-style="normal" font-weight="normal" text-decoration="" line-height="18.5px" x="137.015625" y="14">Java</text><text fill="rgb(0, 0, 0)" stroke="none" font-family="Arial" font-size="16px" font-style="normal" font-weight="normal" text-decoration="" line-height="18.5px" x="175.25" y="14">Modules</text></g></g><g transform="matrix(1,0,0,1,242,580)"><g><g><rect fill="rgb(0,0,0)" stroke="none" x="0" y="0" width="227" height="40" fill-opacity="0"/></g></g><g><g><rect fill="rgb(0,0,0)" stroke="none" x="0" y="0" width="227" height="20" fill-opacity="0"/></g></g><g><g><rect fill="rgb(0,0,0)" stroke="none" x="35.796875" y="5" width="155" height="14" fill-opacity="0"/></g></g><g><g><rect fill="rgb(0,0,0)" stroke="none" x="35.796875" y="0" width="155" height="20" fill-opacity="0"/></g><text fill="rgb(0, 0, 0)" stroke="none" font-family="Arial" font-size="18px" font-style="normal" font-weight="normal" text-decoration="" line-height="20.5px" x="35.796875" y="16">GraphQL</text><text fill="rgb(0, 0, 0)" stroke="none" font-family="Arial" font-size="18px" font-style="normal" font-weight="normal" text-decoration="" line-height="20.5px" x="114.15625" y="16">IO</text><text fill="rgb(0, 0, 0)" stroke="none" font-family="Arial" font-size="18px" font-style="normal" font-weight="normal" text-decoration="" line-height="20.5px" x="138.171875" y="16">Server</text></g><g><g><rect fill="rgb(0,0,0)" stroke="none" x="0" y="20" width="227" height="20" fill-opacity="0"/></g></g><g><g><rect fill="rgb(0,0,0)" stroke="none" x="23.25" y="20" width="181" height="20" fill-opacity="0"/></g></g><g><g><rect fill="rgb(0,0,0)" stroke="none" x="23.25" y="25" width="181" height="14" fill-opacity="0"/></g></g><g><g><rect fill="rgb(0,0,0)" stroke="none" x="23.25" y="20" width="177" height="20" fill-opacity="0"/></g><text fill="rgb(0, 0, 0)" stroke="none" font-family="Arial" font-size="18px" font-style="normal" font-weight="normal" text-decoration="" line-height="20.5px" x="112.3125" y="36">Application</text></g><g><g><rect fill="rgb(0,0,0)" stroke="none" x="23.25" y="20" width="85" height="20" fill-opacity="0"/></g><text fill="rgb(0, 0, 0)" stroke="none" font-family="Arial" font-size="18px" font-style="normal" font-weight="700" text-decoration="" line-height="20.5px" x="23.25" y="36">Pure</text><text fill="rgb(0, 0, 0)" stroke="none" font-family="Arial" font-size="18px" font-style="normal" font-weight="700" text-decoration="" line-height="20.5px" x="68.265625" y="36">Java</text></g></g><g transform="translate(0,0) matrix(1,0,0,1,120,980)"><g><g transform="translate(0,0) scale(1.2000000000000002,0.7)"><g><g transform="scale(0.8333333333333333,1.4285714285714286)"><path fill="#ff0000" stroke="rgb(0,0,0)" d="M 0 0 L 110.00000000000003 0 L 120.00000000000001 10 L 110.00000000000003 10 L 110.00000000000003 0 L 120.00000000000001 10 L 120.00000000000001 70 L 0 70 Z" stroke-opacity="0" stroke-linejoin="round" stroke-miterlimit="10" stroke-width="0"/></g></g></g></g></g><g transform="matrix(1,0,0,1,130,1006)"><g><g><rect fill="rgb(0,0,0)" stroke="none" x="0" y="0" width="102" height="18" fill-opacity="0"/></g></g><g><g><rect fill="rgb(0,0,0)" stroke="none" x="0" y="0" width="102" height="18" fill-opacity="0"/></g></g><g><g><rect fill="rgb(0,0,0)" stroke="none" x="3.1875" y="0" width="95" height="17" fill-opacity="0"/></g></g><g><g><rect fill="rgb(0,0,0)" stroke="none" x="3.1875" y="0" width="95" height="17" fill-opacity="0"/></g><text fill="rgb(0, 0, 0)" stroke="none" font-family="Arial" font-size="16px" font-style="normal" font-weight="normal" text-decoration="" line-height="18.5px" x="3.1875" y="14">Configuration</text></g></g><g transform="translate(0,0) matrix(1,0,0,1,330,800)"><g><g transform="translate(0,0) scale(3,2.5)"><g><path fill="none" stroke="none" d="M 10 0 L 90 0 Q 100 0 100 10 L 100 90 Q 100 100 90 100 L 10 100 Q 0 100 0 90 L 0 10 Q 0 0 10 0 Z"/><g transform="scale(0.3333333333333333,0.4)"><path fill="#999999" stroke="none" d="M 10 0 L 290 0 Q 300 0 300 10 L 300 240 Q 300 250 290 250 L 10 250 Q 0 250 0 240 L 0 10 Q 0 0 10 0 Z"/><path fill="none" stroke="rgb(0,0,0)" d="M 10 0 M 10 0 L 290 0 Q 300 0 300 10 L 300 240 Q 300 250 290 250 L 10 250 Q 0 250 0 240 L 0 10 Q 0 0 10 0 Z" stroke-opacity="0" stroke-miterlimit="10" stroke-width="0"/></g></g></g></g></g><g transform="matrix(1,0,0,1,343,916)"><g><g><rect fill="rgb(0,0,0)" stroke="none" x="0" y="0" width="276" height="18" fill-opacity="0"/></g></g><g><g><rect fill="rgb(0,0,0)" stroke="none" x="0" y="0" width="276" height="18" fill-opacity="0"/></g></g><g><g><rect fill="rgb(0,0,0)" stroke="none" x="110.3125" y="0" width="55" height="17" fill-opacity="0"/></g></g><g><g><rect fill="rgb(0,0,0)" stroke="none" x="110.3125" y="0" width="55" height="17" fill-opacity="0"/></g><text fill="rgb(0, 0, 0)" stroke="none" font-family="Arial" font-size="16px" font-style="normal" font-weight="normal" text-decoration="" line-height="18.5px" x="110.3125" y="14">Domain</text></g></g><g transform="translate(0,0) matrix(1,0,0,1,700,165)"><g><g transform="translate(0,0) scale(0.4,0.15)"><g><path fill="#999999" stroke="none" d="M 0 0 L 100 0 Q 100 0 100 0 L 100 100 Q 100 100 100 100 L 0 100 Q 0 100 0 100 L 0 0 Q 0 0 0 0 Z"/><g transform="scale(2.5,6.666666666666667)"><path fill="none" stroke="none" d="M 0 0 L 40 0 Q 40 0 40 0 L 40 15 Q 40 15 40 15 L 0 15 Q 0 15 0 15 L 0 0 Q 0 0 0 0 Z"/><path fill="none" stroke="rgb(0,0,0)" d="M 0 0 M 0 0 L 40 0 Q 40 0 40 0 L 40 15 Q 40 15 40 15 L 0 15 Q 0 15 0 15 L 0 0 Q 0 0 0 0 Z" stroke-opacity="0" stroke-miterlimit="10" stroke-width="0"/></g></g></g></g></g><g transform="matrix(1,0,0,1,708,166)"><g><g><rect fill="rgb(0,0,0)" stroke="none" x="0" y="0" width="147" height="14" fill-opacity="0"/></g></g><g><g><rect fill="rgb(0,0,0)" stroke="none" x="0" y="0" width="147" height="14" fill-opacity="0"/></g></g><g><g><rect fill="rgb(0,0,0)" stroke="none" x="51.15625" y="0" width="45" height="14" fill-opacity="0"/></g></g><g><g><rect fill="rgb(0,0,0)" stroke="none" x="51.15625" y="0" width="45" height="14" fill-opacity="0"/></g><text fill="rgb(0, 0, 0)" stroke="none" font-family="Arial" font-size="12px" font-style="normal" font-weight="normal" text-decoration="" line-height="14px" x="51.15625" y="11">Domain</text></g></g></g></svg>